<?xml version="1.0" encoding="utf-8"?>
<!-- Generator: Adobe Illustrator 27.5.0, SVG Export Plug-In . SVG Version: 6.00 Build 0)  -->
<svg version="1.1" xmlns="http://www.w3.org/2000/svg" xmlns:xlink="http://www.w3.org/1999/xlink" x="0px" y="0px"
	 viewBox="0 0 3710 3710" style="enable-background:new 0 0 3710 3710;" xml:space="preserve">
<g id="Background">
	<g>
		<g>
			<rect style="fill:#FFFFFF;" width="3710" height="3710"/>
		</g>
	</g>
</g>
<g id="Illustration">
	<g>
		<path style="fill:#F4F7FA;" d="M1082.472,594.741c-96.7,138.432,16.683,362.863-126.803,466.974
			c-139.673,101.345-311.257-64.773-442.89,22.464c-195.27,129.412-159.61,721.575,125.885,1089.498
			c85.858,110.647,157.597,153.698,189.371,278.834c68.226,268.7-171.555,428.539-125.924,561.434
			c102.742,299.229,1682.841,550.319,2316.848-348.966c296.106-420.003,340.41-1026.491,75.848-1487.123
			C2616.746,345.505,1299.451,284.126,1082.472,594.741z"/>
		<g>
			
				<linearGradient id="SVGID_1_" gradientUnits="userSpaceOnUse" x1="-292.2565" y1="1011.452" x2="1678.478" y2="1011.452" gradientTransform="matrix(-0.9992 0.0401 0.0401 0.9992 2912.3755 689.5381)">
				<stop  offset="0" style="stop-color:#AA80F9"/>
				<stop  offset="0.9964" style="stop-color:#6165D7"/>
			</linearGradient>
			<path style="fill:url(#SVGID_1_);" d="M1717.735,3033.76c-77.501-23.399-207.974-62.793-302.935-182.663
				c-172.641-217.93-115.832-560.391,4.18-778.441c103.083-187.296,294.323-309.253,676.801-553.173
				c360.218-229.726,483.319-256.339,513.784-396.181c43.431-199.36-162.818-346.982-77.28-571.956
				c10.265-26.996,45.519-119.719,130.074-154.791c144.743-60.039,332.369,90.993,420.285,202.527
				c84.802,107.585,176.33,304.65,108.362,464.327c-49.244,115.69-140.38,113.473-159.403,219.815
				c-19.14,106.994,67.343,141.51,107.816,317.402c16.169,70.269,48.625,211.318-13.244,332.924
				c-79.997,157.238-245.275,139.631-275.02,270.291c-21.492,94.405,57.77,134.464,56.306,243.71
				c-1.925,143.821-141.64,249.632-259.084,336.13C2510.083,2885.54,2136.981,3160.339,1717.735,3033.76z"/>
			<path style="opacity:0.16;fill:#FFFFFF;" d="M2717.983,457.475c-76.918,57.271,158.38,293.665,104.527,617.383
				c-57.944,348.306-415.285,585.219-580.423,694.703c-281.752,186.8-405.334,153.109-583.906,359.125
				c-70.676,81.536-217.916,251.404-193.495,479.755c2.269,21.216,31.092,257.366,217.335,363.561
				c211.25,120.457,464.413-17.87,682.555-137.055c131.812-72.02,395.125-215.885,370.985-363.885
				c-14.757-90.473-133.536-161.658-229.929-180.244c-137.581-26.532-248.405,50.45-261.502,27.107
				c-11.797-21.024,66.767-103.705,176.135-166.61c218.758-125.822,337.103-43.883,498.836-159.604
				c19.604-14.025,173.32-127.418,171.079-292.719c-1.292-95.337-54.498-210.421-132.1-227.375
				c-87.768-19.176-168.865,95.445-189.683,77.408c-19.907-17.246,42.143-132.52,120.111-237.491
				c114.56-154.237,168.023-157.71,209.18-254.355c62.794-147.449,5.699-297.526-2.817-318.983
				C3015.063,537.141,2783.746,408.509,2717.983,457.475z"/>
		</g>
		<g>
			
				<linearGradient id="SVGID_00000006676028588755096580000014107567396375354244_" gradientUnits="userSpaceOnUse" x1="2716.2051" y1="2561.509" x2="2953.9724" y2="3204.8782">
				<stop  offset="0" style="stop-color:#FF9085"/>
				<stop  offset="0.6291" style="stop-color:#FC7BA7"/>
				<stop  offset="1" style="stop-color:#FB6FBB"/>
			</linearGradient>
			<path style="fill:url(#SVGID_00000006676028588755096580000014107567396375354244_);" d="M2264.533,3086.499
				c-31.675-23.332-84.998-62.611-108.959-132.955c-43.562-127.888,38.205-275.435,128.654-355.73
				c77.691-68.971,185.107-93.673,399.939-143.079c202.329-46.532,263.024-38.674,299.741-97.741
				c52.344-84.206-18.053-185.376,57.74-274.454c9.095-10.689,40.333-47.402,84.757-49.693
				c76.046-3.923,137.361,95.775,159.454,161.156c21.311,63.064,31.132,168.193-25.985,230.236
				c-41.383,44.951-82.749,29.097-108.772,74.69c-26.183,45.871,7.794,75.755-2.313,162.877
				c-4.038,34.806-12.143,104.67-60.268,150.274c-62.228,58.967-135.034,23.996-169.926,78.976
				c-25.211,39.724,4.557,70.97-13.899,120.75c-24.298,65.535-105.494,91.233-173.349,111.716
				C2651.444,3147.641,2435.877,3212.712,2264.533,3086.499z"/>
			<path style="opacity:0.16;fill:#FFFFFF;" d="M3141.953,2069.795c-44.542,13.698,24.703,160.241-52.66,299.688
				c-83.239,150.038-285.42,200.33-378.855,223.571c-159.414,39.654-210.511,4.107-325.813,69.358
				c-45.635,25.824-140.705,79.626-166.703,188.154c-2.416,10.083-27.667,122.897,40.314,201.842
				c77.109,89.546,215.542,67.431,334.824,48.378c72.076-11.513,216.058-34.512,229.101-106.204
				c7.974-43.826-34.819-95.757-75.927-119.961c-58.672-34.548-121.947-17.345-124.143-30.165
				c-1.978-11.546,47.454-36.611,107.77-47.605c120.645-21.991,161.488,34.793,254.379,8.142
				c11.259-3.23,100.101-30.12,125.988-106.168c14.931-43.86,9.307-105.214-23.463-125.612
				c-37.063-23.069-92.854,16.206-99.449,4.558c-6.307-11.138,40.871-53.813,93.659-89.18
				c77.564-51.966,102.607-44.852,137.187-82.4c52.757-57.286,51.051-135.294,50.645-146.505
				C3265.001,2154.639,3180.035,2058.083,3141.953,2069.795z"/>
		</g>
		<g>
			<path style="opacity:0.75;fill:#F4F7FA;" d="M2719.892,1366.826c0-473.987-403.54-858.23-901.329-858.23
				c-497.792,0-901.33,384.243-901.33,858.23c0,287.651,148.633,542.239,376.755,697.956
				c96.78,66.062,155.474,174.948,155.474,292.123v65.677c0,142.701,115.682,258.383,258.379,258.383h221.441
				c142.7,0,258.379-115.682,258.379-258.383v-65.677c0-117.175,58.695-226.061,155.473-292.123
				C2571.26,1909.064,2719.892,1654.476,2719.892,1366.826z"/>
			
				<linearGradient id="SVGID_00000120541442939200860980000010442600520914150059_" gradientUnits="userSpaceOnUse" x1="1799.7876" y1="3213.8132" x2="1815.7952" y2="3085.7524">
				<stop  offset="0.0036" style="stop-color:#26264F"/>
				<stop  offset="1" style="stop-color:#444B8C"/>
			</linearGradient>
			<path style="fill:url(#SVGID_00000120541442939200860980000010442600520914150059_);" d="M2018.503,3063.617
				c0,58.462-89.515,105.854-199.94,105.854c-110.425,0-199.941-47.392-199.941-105.854c0-58.459,89.516-105.851,199.941-105.851
				C1928.988,2957.765,2018.503,3005.157,2018.503,3063.617z"/>
			
				<linearGradient id="SVGID_00000063614550587092639020000004239536965136714156_" gradientUnits="userSpaceOnUse" x1="1733.9528" y1="3097.0962" x2="1894.0314" y2="2808.9546">
				<stop  offset="0.0036" style="stop-color:#26264F"/>
				<stop  offset="1" style="stop-color:#444B8C"/>
			</linearGradient>
			<path style="fill:url(#SVGID_00000063614550587092639020000004239536965136714156_);" d="M1552.916,2874.522v108.097
				c0,36.575,20.815,70.085,53.825,85.827c45.829,21.854,122.024,45.84,232.761,43.003c89.84-2.301,148.422-16.974,185.666-32.386
				c35.98-14.888,59.043-50.469,59.043-89.409v-59.811L1552.916,2874.522z"/>
			
				<linearGradient id="SVGID_00000011726901867437746490000013403944958807840656_" gradientUnits="userSpaceOnUse" x1="1552.9158" y1="2960.5471" x2="2084.2097" y2="2960.5471">
				<stop  offset="0.0036" style="stop-color:#26264F"/>
				<stop  offset="1" style="stop-color:#444B8C"/>
			</linearGradient>
			<path style="opacity:0.3;fill:url(#SVGID_00000011726901867437746490000013403944958807840656_);" d="M1552.916,2969.208
				c8.097,7.871,17.476,14.55,28.008,19.571c51.414,24.518,388.189,79.304,469.422,48.781c10.553-3.962,20.043-9.266,28.355-15.662
				c3.553-10.209,5.51-21.075,5.51-32.244v-59.811l-531.294-55.323V2969.208z"/>
			
				<linearGradient id="SVGID_00000004544011967145416910000012548238069846618784_" gradientUnits="userSpaceOnUse" x1="1749.1903" y1="3018.3586" x2="1907.2675" y2="2714.2107">
				<stop  offset="0.0036" style="stop-color:#26264F"/>
				<stop  offset="1" style="stop-color:#444B8C"/>
			</linearGradient>
			<path style="fill:url(#SVGID_00000004544011967145416910000012548238069846618784_);" d="M1576.503,2800.972
				c-29.924-3.117-55.962,20.353-55.962,50.437v3.063c0,41.031,23.347,78.624,60.382,96.287
				c51.414,24.519,388.189,79.304,469.422,48.783c40.898-15.367,66.24-50.478,66.24-94.164v-2.466
				c0-25.974-19.625-47.746-45.458-50.436L1576.503,2800.972z"/>
			
				<linearGradient id="SVGID_00000061454314683891073020000017478769748281687474_" gradientUnits="userSpaceOnUse" x1="1529.1129" y1="2871.0037" x2="2107.7493" y2="2871.0037">
				<stop  offset="0.0036" style="stop-color:#26264F"/>
				<stop  offset="1" style="stop-color:#444B8C"/>
			</linearGradient>
			<path style="opacity:0.3;fill:url(#SVGID_00000061454314683891073020000017478769748281687474_);" d="M2071.127,2852.477
				l-494.624-51.505c-19.516-2.032-37.325,7.282-47.39,22.325c9.936,23.413,28.029,42.998,51.81,54.339
				c51.414,24.519,402.532,86.447,469.422,54.928c26.04-12.272,46.462-32.986,57.404-58.166
				C2099.597,2862.443,2086.478,2854.076,2071.127,2852.477z"/>
			
				<linearGradient id="SVGID_00000177448949166942265310000006768165394910295425_" gradientUnits="userSpaceOnUse" x1="1520.5414" y1="2766.4541" x2="2116.5847" y2="2766.4541">
				<stop  offset="0.0036" style="stop-color:#26264F"/>
				<stop  offset="1" style="stop-color:#444B8C"/>
			</linearGradient>
			<path style="fill:url(#SVGID_00000177448949166942265310000006768165394910295425_);" d="M1557.15,2625.836
				c-20.22,0-36.609,16.388-36.609,36.61v84.664c0,41.031,23.347,78.626,60.382,96.286c51.414,24.519,402.532,86.447,469.422,54.928
				c39.521-18.623,66.24-56.622,66.24-100.306v-135.572c0-20.222-16.393-36.61-36.611-36.61H1557.15z"/>
			
				<linearGradient id="SVGID_00000125587519385801538140000011777101184094645942_" gradientUnits="userSpaceOnUse" x1="1803.7593" y1="2721.4937" x2="1862.4545" y2="2446.6943">
				<stop  offset="0.0036" style="stop-color:#26264F"/>
				<stop  offset="1" style="stop-color:#444B8C"/>
			</linearGradient>
			<path style="fill:url(#SVGID_00000125587519385801538140000011777101184094645942_);" d="M2109.213,2652.192
				c0,37.949-130.129,68.715-290.65,68.715s-290.653-30.766-290.653-68.715c0-37.952,130.131-68.719,290.653-68.719
				S2109.213,2614.24,2109.213,2652.192z"/>
			
				<linearGradient id="SVGID_00000174563078056419014290000017885219578940357013_" gradientUnits="userSpaceOnUse" x1="1691.0413" y1="1188.1434" x2="2855.5461" y2="3036.9453">
				<stop  offset="0" style="stop-color:#FCB148"/>
				<stop  offset="0.0521" style="stop-color:#FDBA46"/>
				<stop  offset="0.1424" style="stop-color:#FFC244"/>
				<stop  offset="0.3183" style="stop-color:#FFC444"/>
				<stop  offset="0.4849" style="stop-color:#FDB946"/>
				<stop  offset="0.7754" style="stop-color:#F99C4D"/>
				<stop  offset="0.8658" style="stop-color:#F8924F"/>
				<stop  offset="1" style="stop-color:#F8924F"/>
			</linearGradient>
			<path style="fill:url(#SVGID_00000174563078056419014290000017885219578940357013_);" d="M2719.892,1366.826
				c0-473.987-403.54-858.23-901.329-858.23c-497.792,0-901.33,384.243-901.33,858.23c0,287.651,148.633,542.239,376.755,697.956
				c96.78,66.062,155.474,174.948,155.474,292.123v65.677c0,142.701,115.682,258.383,258.379,258.383h221.441
				c142.7,0,258.379-115.682,258.379-258.383v-65.677c0-117.175,58.695-226.061,155.473-292.123
				C2571.26,1909.064,2719.892,1654.476,2719.892,1366.826z"/>
			<ellipse style="opacity:0.5;fill:#F4F7FA;" cx="1818.563" cy="2598.006" rx="212.676" ry="50.281"/>
			<g>
				
					<linearGradient id="SVGID_00000142880936572192377220000015520794232276203657_" gradientUnits="userSpaceOnUse" x1="1555.3438" y1="2608.3274" x2="1704.2571" y2="2173.3005">
					<stop  offset="0.494" style="stop-color:#EBEFF2"/>
					<stop  offset="1" style="stop-color:#FFFFFF"/>
				</linearGradient>
				<path style="fill:url(#SVGID_00000142880936572192377220000015520794232276203657_);" d="M1763.141,2628.734
					c-6.091,0-11.379-4.525-12.179-10.726l-156.458-773.332c-0.864-6.735,3.892-12.894,10.625-13.757
					c6.747-0.905,12.893,3.89,13.759,10.623l156.456,773.336c0.865,6.732-3.893,12.89-10.625,13.753
					C1764.191,2628.705,1763.663,2628.734,1763.141,2628.734z"/>
				
					<linearGradient id="SVGID_00000053507109405322739500000012928513427259266968_" gradientUnits="userSpaceOnUse" x1="1785.0853" y1="2678.0513" x2="1941.3135" y2="2221.6553">
					<stop  offset="0.494" style="stop-color:#EBEFF2"/>
					<stop  offset="1" style="stop-color:#FFFFFF"/>
				</linearGradient>
				<path style="fill:url(#SVGID_00000053507109405322739500000012928513427259266968_);" d="M1860.321,2628.734
					c-0.522,0-1.052-0.029-1.582-0.103c-6.736-0.863-11.49-7.021-10.623-13.753l156.458-773.336
					c0.865-6.732,7.02-11.534,13.76-10.623c6.732,0.863,11.488,7.022,10.625,13.757l-156.464,773.332
					C1871.699,2624.209,1866.411,2628.734,1860.321,2628.734z"/>
			</g>
			<ellipse style="opacity:0.44;fill:#F4F7FA;" cx="1832.979" cy="1400.287" rx="775.612" ry="747.994"/>
			
				<linearGradient id="SVGID_00000083053660805285713180000014758205391533900735_" gradientUnits="userSpaceOnUse" x1="1731.9059" y1="771.408" x2="1499.7922" y2="2684.3401">
				<stop  offset="0" style="stop-color:#FCB148"/>
				<stop  offset="0.0521" style="stop-color:#FDBA46"/>
				<stop  offset="0.1424" style="stop-color:#FFC244"/>
				<stop  offset="0.3183" style="stop-color:#FFC444"/>
				<stop  offset="0.4849" style="stop-color:#FDB946"/>
				<stop  offset="0.7754" style="stop-color:#F99C4D"/>
				<stop  offset="0.8658" style="stop-color:#F8924F"/>
				<stop  offset="1" style="stop-color:#F8924F"/>
			</linearGradient>
			<path style="opacity:0.3;fill:url(#SVGID_00000083053660805285713180000014758205391533900735_);" d="M1834.917,2043.768
				c19.31-330.789,576.962-408.203,574.571-703.619c-1.47-181.944-223.066-317.065-270.383-344.128
				c-348.673-199.42-777.836,30.868-866.468-132.119c-22.069-40.581-11.722-84.753-5.829-109.911
				c8.908-38.022,29.071-73.434,58.981-105.824c-245.996,153.244-408.558,417.853-408.558,718.659
				c0,287.651,148.633,542.239,376.755,697.956c96.78,66.062,155.474,174.948,155.474,292.127v65.674
				c0,142.701,115.682,258.383,258.379,258.383h221.441c142.7,0,258.379-115.682,258.379-258.383v-52.507
				c-30.476,23.356-65.479,39.644-103.862,39.332C1950.613,2408.309,1825.311,2208.381,1834.917,2043.768z"/>
			<g>
				
					<linearGradient id="SVGID_00000142865648634081027510000005000851690952225162_" gradientUnits="userSpaceOnUse" x1="1086.7335" y1="1229.2802" x2="1977.592" y2="1229.2802">
					<stop  offset="0.0036" style="stop-color:#26264F"/>
					<stop  offset="1" style="stop-color:#444B8C"/>
				</linearGradient>
				<path style="fill:url(#SVGID_00000142865648634081027510000005000851690952225162_);" d="M1899.23,1329.778
					c38.183,3.215,74.587-16.515,78.07-57.861c3.482-41.345-24.649-77.469-62.832-80.684c-1.979-0.167-3.938-0.186-5.887-0.175
					c-1.821-21.354-5.151-42.27-9.943-62.601c1.812-0.741,3.621-1.512,5.404-2.428c34.809-17.888,49.994-62.716,33.918-100.132
					c-16.075-37.414-57.326-53.244-92.134-35.356c-1.82,0.937-3.553,1.987-5.265,3.064c-11.364-17.161-23.949-33.323-37.648-48.349
					c1.265-1.647,2.511-3.322,3.667-5.108c22.107-34.197,14.633-80.936-16.692-104.395c-31.327-23.456-74.644-14.749-96.751,19.448
					c-1.133,1.753-2.136,3.555-3.114,5.37c-17.684-8.535-36.147-15.602-55.264-21.132c0.339-2.083,0.65-4.179,0.831-6.32
					c3.483-41.345,11.017-88.024-27.213-90.641c-88.434-6.056-107.58,37.65-111.062,78.995c-0.179,2.142-0.224,4.26-0.238,6.37
					c-19.773,2.255-39.156,6.134-58.019,11.59c-0.661-1.952-1.35-3.897-2.173-5.814c-16.075-37.413-13.173-62.372-49.713-48.352
					c-79.678,30.569-92.416,75.715-76.341,113.128c0.841,1.955,1.788,3.815,2.761,5.65c-16.019,12.522-31.13,26.351-45.206,41.369
					c-1.505-1.349-3.038-2.673-4.677-3.9c-31.325-23.457-74.642-14.751-96.75,19.447c-22.108,34.199-14.634,80.936,16.693,104.394
					c1.604,1.202,3.257,2.263,4.922,3.299c-8.127,19.241-14.906,39.306-20.276,60.055c-1.92-0.338-3.855-0.647-5.832-0.813
					c-38.184-3.217-71.96,27.694-75.443,69.039c-3.483,41.343,24.648,77.468,62.832,80.684c1.978,0.165,3.938,0.186,5.887,0.173
					c1.822,21.356,5.151,42.271,9.943,62.603c-1.811,0.741-3.621,1.51-5.403,2.426c-34.809,17.89-49.995,62.718-33.92,100.132
					c16.076,37.414,57.327,53.242,92.136,35.356c1.819-0.935,3.552-1.985,5.262-3.063c11.365,17.162,23.95,33.323,37.648,48.349
					c-1.265,1.646-2.511,3.322-3.666,5.11c-22.107,34.197-14.634,80.936,16.692,104.393c31.328,23.458,99.141,12.725,121.248-21.472
					c1.132-1.752-22.36-1.53-21.383-3.344c17.683,8.535,36.146,15.602,55.263,21.13c-0.339,2.083-0.65,4.18-0.83,6.321
					c-3.483,41.345,24.649,77.469,62.832,80.684c38.184,3.217,71.96-27.694,75.442-69.038c0.18-2.141,0.224-4.26,0.238-6.37
					c19.773-2.253,39.157-6.132,58.02-11.588c0.661,1.952,1.349,3.896,2.173,5.814c16.075,37.413,57.325,53.243,92.135,35.354
					c34.808-17.888,49.994-62.717,33.919-100.13c-0.841-1.956-1.789-3.816-2.761-5.65c16.021-12.522,31.13-26.351,45.205-41.371
					c1.505,1.349,3.039,2.675,4.677,3.9c31.327,23.458,74.642,14.752,96.75-19.447c22.108-34.199,14.633-80.936-16.693-104.395
					c-1.604-1.2-3.258-2.262-4.922-3.297c8.125-19.242,12.278-50.485,17.646-71.235
					C1895.318,1329.303,1897.253,1329.61,1899.23,1329.778z M1509.271,1506.231c-138.637-11.677-240.773-142.833-228.13-292.947
					c12.644-150.115,135.28-262.338,273.914-250.662c138.637,11.675,240.773,142.833,228.13,292.947
					C1770.54,1405.682,1647.905,1517.907,1509.271,1506.231z"/>
				
					<linearGradient id="SVGID_00000168806293094086121850000014012166884676228275_" gradientUnits="userSpaceOnUse" x1="1592.704" y1="1226.9932" x2="1977.5914" y2="1226.9932">
					<stop  offset="0.0036" style="stop-color:#26264F"/>
					<stop  offset="1" style="stop-color:#444B8C"/>
				</linearGradient>
				<path style="fill:url(#SVGID_00000168806293094086121850000014012166884676228275_);" d="M1904.043,1126.03
					c34.809-17.888,49.993-62.718,33.918-100.132c-16.075-37.414-57.326-53.244-92.136-35.355c-1.82,0.934-3.552,1.986-5.261,3.062
					c-11.366-17.161-23.951-33.323-37.649-48.348c1.266-1.645,2.511-3.322,3.666-5.11c22.108-34.195,39.092-102.029,5.526-122.148
					c-63.708-38.186-96.861,3.006-118.968,37.203c-1.133,1.753-2.136,3.554-3.115,5.368c-17.684-8.534-36.146-15.6-55.263-21.13
					c0.339-2.083,0.65-4.179,0.831-6.32c1.896-22.503-5.622-43.408-18.98-58.354c-8.51,64.651-16.531,129.357-23.906,194.138
					c118.98,29.95,201.948,150.504,190.48,286.667c-9.718,115.384-84.447,208.308-181.448,239.862
					c0.224,12.613,0.548,25.254,0.431,37.884c-0.318,34.271-2.54,68.615-4.797,102.928c9.412-1.902,18.718-4.171,27.898-6.825
					c0.66,1.954,1.348,3.898,2.172,5.814c16.076,37.414,51.994,60.161,116.039,30.106c35.43-16.626,26.091-57.468,10.015-94.883
					c-0.84-1.954-1.788-3.814-2.761-5.65c16.02-12.522,31.13-26.351,45.206-41.37c1.505,1.349,3.041,2.674,4.676,3.898
					c31.328,23.46,101.603,10.29,123.711-23.909c22.108-34.199-12.328-76.472-43.653-99.931c-1.605-1.201-3.258-2.262-4.923-3.298
					c8.126-19.241,14.085-49.807,19.453-70.555c1.922,0.341,3.855,0.649,5.833,0.812c38.185,3.219,72.783-17.192,76.265-58.539
					c3.482-41.343-24.648-77.468-62.832-80.683c-1.979-0.167-3.936-0.187-5.887-0.175c-1.821-21.354-5.151-42.27-9.942-62.599
					C1900.45,1127.716,1902.259,1126.946,1904.043,1126.03z"/>
				<path style="fill:#FFFFFF;" d="M1937.478,1331.001c38.183,3.215,71.961-27.694,75.444-69.04
					c3.481-41.344-24.649-77.469-62.832-80.684c-1.979-0.167-3.936-0.187-5.888-0.175c-1.822-21.355-5.151-42.27-9.943-62.6
					c1.813-0.742,3.621-1.512,5.403-2.43c34.81-17.886,49.994-62.716,33.919-100.13c-16.075-37.414-57.326-53.244-92.134-35.356
					c-1.821,0.937-3.554,1.987-5.265,3.064c-11.364-17.162-23.949-33.323-37.647-48.349c1.265-1.646,2.511-3.322,3.666-5.11
					c22.107-34.195,14.633-80.936-16.692-104.393c-31.327-23.457-74.644-14.751-96.751,19.446c-1.133,1.754-2.136,3.556-3.115,5.369
					c-17.684-8.534-36.146-15.6-55.263-21.13c0.339-2.083,0.65-4.179,0.83-6.321c3.483-41.345-24.649-77.469-62.832-80.685
					c-38.182-3.215-71.959,27.694-75.442,69.039c-0.18,2.141-0.224,4.26-0.238,6.37c-19.772,2.253-39.157,6.133-58.019,11.59
					c-0.661-1.951-1.35-3.897-2.172-5.814c-16.076-37.412-57.327-53.242-92.136-35.356c-34.81,17.888-49.995,62.718-33.92,100.132
					c0.841,1.953,1.788,3.815,2.762,5.651c-16.019,12.522-31.131,26.35-45.206,41.369c-1.505-1.349-3.038-2.673-4.675-3.901
					c-31.328-23.458-74.644-14.751-96.752,19.448c-22.108,34.199-14.633,80.936,16.693,104.393c1.604,1.203,3.258,2.264,4.921,3.298
					c-8.126,19.243-14.906,39.306-20.275,60.057c-1.921-0.339-3.854-0.647-5.833-0.814c-38.183-3.216-71.96,27.694-75.442,69.038
					c-3.484,41.345,24.647,77.47,62.831,80.685c1.979,0.167,3.938,0.186,5.888,0.175c1.822,21.356,5.151,42.271,9.944,62.6
					c-1.813,0.744-3.622,1.513-5.405,2.428c-34.81,17.888-49.995,62.718-33.919,100.132c16.075,37.414,57.326,53.242,92.135,35.354
					c1.819-0.934,3.553-1.983,5.263-3.061c11.365,17.162,23.949,33.323,37.649,48.347c-1.267,1.647-2.513,3.323-3.668,5.11
					c-22.108,34.195-14.633,80.936,16.693,104.393c31.325,23.457,74.642,14.751,96.751-19.446c1.132-1.754,2.136-3.555,3.113-5.369
					c17.684,8.535,36.148,15.6,55.263,21.13c-0.339,2.083-0.65,4.178-0.83,6.321c-3.482,41.344,24.65,77.469,62.832,80.684
					c38.183,3.216,71.96-27.694,75.442-69.038c0.18-2.141,0.224-4.259,0.238-6.37c19.774-2.253,39.157-6.132,58.019-11.59
					c0.661,1.953,1.349,3.897,2.173,5.814c16.075,37.413,57.326,53.243,92.136,35.356c34.808-17.888,49.995-62.718,33.919-100.13
					c-0.841-1.955-1.789-3.816-2.762-5.652c16.02-12.523,31.131-26.351,45.206-41.369c1.506,1.348,3.04,2.672,4.676,3.898
					c31.328,23.458,74.644,14.753,96.751-19.446c22.108-34.199,14.633-80.936-16.693-104.395c-1.605-1.201-3.259-2.262-4.922-3.297
					c8.126-19.242,14.907-39.307,20.275-60.057C1933.566,1330.526,1935.501,1330.833,1937.478,1331.001z M1544.89,1496.274
					c-138.636-11.675-240.772-142.831-228.128-292.945c12.642-150.114,135.278-262.339,273.913-250.662
					c138.636,11.676,240.772,142.831,228.13,292.945C1806.161,1395.726,1683.526,1507.952,1544.89,1496.274z"/>
			</g>
			<g>
				
					<linearGradient id="SVGID_00000042722252722479164200000000346792361444437668_" gradientUnits="userSpaceOnUse" x1="1936.162" y1="1560.7574" x2="2478.7737" y2="1560.7574">
					<stop  offset="0.0036" style="stop-color:#26264F"/>
					<stop  offset="1" style="stop-color:#444B8C"/>
				</linearGradient>
				<path style="fill:url(#SVGID_00000042722252722479164200000000346792361444437668_);" d="M2431.16,1621.911
					c23.257,1.958,45.314-10,47.436-35.183c2.12-25.183-15.013-47.186-38.271-49.144c-1.205-0.101-2.398-0.113-3.586-0.106
					c-1.109-13.007-3.137-25.746-6.056-38.129c1.104-0.451,2.205-0.921,3.292-1.479c21.202-10.896,30.451-38.2,20.659-60.989
					c-9.791-22.788-34.917-32.43-56.118-21.535c-1.109,0.571-2.164,1.21-3.207,1.866c-6.922-10.453-14.587-20.297-22.931-29.449
					c0.771-1.003,1.529-2.024,2.233-3.111c13.466-20.829,8.913-49.297-10.167-63.586c-19.081-14.287-45.465-8.983-58.929,11.845
					c-0.69,1.068-1.301,2.165-1.897,3.271c-10.771-5.199-22.017-9.503-33.661-12.871c0.206-1.269,0.396-2.545,0.506-3.849
					c2.121-25.183,6.71-53.615-16.575-55.209c-53.864-3.688-65.526,22.932-67.646,48.115c-0.109,1.305-0.137,2.594-0.145,3.88
					c-12.044,1.374-23.85,3.737-35.339,7.06c-0.403-1.189-0.822-2.374-1.323-3.542c-9.791-22.787-8.024-37.99-30.28-29.451
					c-48.531,18.619-56.29,46.117-46.498,68.905c0.512,1.191,1.089,2.323,1.682,3.442c-9.757,7.627-18.961,16.05-27.534,25.198
					c-0.917-0.822-1.851-1.628-2.849-2.375c-19.08-14.288-45.464-8.985-58.929,11.845c-13.466,20.83-8.914,49.298,10.168,63.586
					c0.977,0.732,1.984,1.378,2.998,2.009c-4.95,11.719-9.079,23.941-12.349,36.579c-1.17-0.206-2.348-0.394-3.552-0.495
					c-23.257-1.959-43.83,16.868-45.952,42.051c-2.121,25.181,15.013,47.184,38.27,49.144c1.205,0.101,2.399,0.114,3.586,0.106
					c1.109,13.008,3.137,25.747,6.056,38.13c-1.104,0.452-2.206,0.92-3.291,1.477c-21.202,10.897-30.451,38.201-20.66,60.99
					c9.791,22.789,34.917,32.429,56.119,21.535c1.108-0.569,2.164-1.209,3.205-1.865c6.922,10.453,14.588,20.296,22.931,29.448
					c-0.77,1.003-1.529,2.024-2.233,3.112c-13.465,20.829-8.913,49.297,10.167,63.585c19.082,14.288,60.386,7.75,73.851-13.078
					c0.69-1.067-13.619-0.932-13.023-2.037c10.771,5.199,22.016,9.503,33.66,12.87c-0.206,1.269-0.396,2.546-0.506,3.85
					c-2.121,25.183,15.014,47.185,38.271,49.144c23.257,1.959,43.83-16.868,45.95-42.051c0.11-1.304,0.136-2.594,0.145-3.88
					c12.043-1.372,23.85-3.735,35.339-7.058c0.403,1.188,0.822,2.373,1.324,3.541c9.791,22.788,34.917,32.43,56.119,21.534
					c21.201-10.895,30.45-38.201,20.659-60.988c-0.512-1.191-1.09-2.325-1.682-3.442c9.758-7.627,18.961-16.05,27.534-25.198
					c0.917,0.821,1.851,1.629,2.849,2.375c19.081,14.288,45.464,8.985,58.929-11.845c13.465-20.831,8.913-49.297-10.167-63.586
					c-0.977-0.73-1.985-1.378-2.998-2.008c4.949-11.72,7.594-30.808,10.865-43.447
					C2428.778,1621.622,2429.956,1621.809,2431.16,1621.911z M2193.525,1729.445c-84.442-7.112-146.652-86.997-138.952-178.43
					c7.701-91.433,82.397-159.788,166.838-152.676c84.442,7.111,146.652,86.998,138.952,178.431
					C2352.661,1668.202,2277.965,1736.557,2193.525,1729.445z"/>
				
					<linearGradient id="SVGID_00000078741437645242130730000002513005335918956430_" gradientUnits="userSpaceOnUse" x1="2244.3428" y1="1559.3644" x2="2478.7732" y2="1559.3644">
					<stop  offset="0.0036" style="stop-color:#26264F"/>
					<stop  offset="1" style="stop-color:#444B8C"/>
				</linearGradient>
				<path style="fill:url(#SVGID_00000078741437645242130730000002513005335918956430_);" d="M2433.976,1497.869
					c21.202-10.896,30.45-38.201,20.659-60.989c-9.791-22.788-34.917-32.43-56.119-21.535c-1.108,0.569-2.163,1.21-3.205,1.865
					c-6.923-10.453-14.588-20.297-22.932-29.448c0.771-1.001,1.529-2.024,2.233-3.112c13.466-20.828,23.81-62.145,3.365-74.399
					c-38.804-23.258-58.997,1.831-72.462,22.66c-0.69,1.068-1.301,2.165-1.898,3.27c-10.771-5.198-22.016-9.502-33.66-12.87
					c0.206-1.269,0.396-2.545,0.506-3.849c1.155-13.706-3.425-26.44-11.56-35.543c-5.184,39.379-10.069,78.79-14.561,118.248
					c72.47,18.242,123.004,91.67,116.019,174.606c-5.919,70.279-51.435,126.878-110.518,146.097
					c0.136,7.682,0.333,15.381,0.263,23.075c-0.194,20.874-1.547,41.792-2.922,62.693c5.733-1.158,11.401-2.541,16.992-4.157
					c0.402,1.19,0.821,2.374,1.323,3.542c9.791,22.789,31.669,36.644,70.677,18.337c21.58-10.126,15.892-35.003,6.1-57.792
					c-0.511-1.19-1.089-2.323-1.682-3.442c9.758-7.627,18.962-16.05,27.535-25.197c0.917,0.821,1.852,1.629,2.848,2.375
					c19.082,14.289,61.885,6.267,75.351-14.563c13.466-20.83-7.508-46.578-26.588-60.867c-0.978-0.731-1.985-1.378-2.999-2.009
					c4.95-11.719,8.498-31.936,11.768-44.573c1.17,0.208,2.348,0.395,3.552,0.495c23.258,1.961,44.412-8.873,46.533-34.057
					c2.121-25.182-15.013-47.184-38.27-49.143c-1.205-0.101-2.397-0.114-3.586-0.106c-1.109-13.007-3.137-25.746-6.056-38.128
					C2431.788,1498.896,2432.889,1498.427,2433.976,1497.869z"/>
				<path style="fill:#FFFFFF;" d="M2454.34,1622.714c23.257,1.958,43.83-16.868,45.952-42.051
					c2.12-25.183-15.013-47.186-38.271-49.144c-1.205-0.101-2.397-0.114-3.586-0.106c-1.11-13.008-3.137-25.747-6.056-38.129
					c1.104-0.452,2.205-0.921,3.291-1.48c21.202-10.894,30.451-38.199,20.659-60.988c-9.791-22.789-34.917-32.43-56.117-21.535
					c-1.109,0.571-2.165,1.21-3.207,1.866c-6.922-10.453-14.587-20.297-22.931-29.448c0.77-1.003,1.53-2.023,2.233-3.112
					c13.465-20.828,8.913-49.297-10.167-63.584c-19.081-14.287-45.465-8.985-58.93,11.844c-0.69,1.068-1.301,2.166-1.897,3.27
					c-10.771-5.198-22.016-9.502-33.66-12.87c0.206-1.269,0.396-2.546,0.506-3.85c2.121-25.183-15.014-47.185-38.271-49.144
					c-23.256-1.958-43.829,16.868-45.95,42.051c-0.11,1.304-0.137,2.594-0.145,3.88c-12.042,1.372-23.85,3.735-35.338,7.059
					c-0.403-1.189-0.823-2.374-1.323-3.541c-9.792-22.788-34.917-32.429-56.119-21.535c-21.202,10.896-30.451,38.201-20.66,60.99
					c0.512,1.19,1.089,2.323,1.682,3.442c-9.757,7.627-18.961,16.05-27.534,25.197c-0.917-0.821-1.851-1.628-2.848-2.375
					c-19.081-14.288-45.465-8.985-58.931,11.845c-13.466,20.83-8.913,49.297,10.168,63.584c0.977,0.733,1.984,1.379,2.998,2.009
					c-4.949,11.721-9.079,23.941-12.349,36.58c-1.17-0.207-2.348-0.394-3.553-0.496c-23.257-1.959-43.83,16.868-45.951,42.051
					c-2.122,25.183,15.013,47.186,38.269,49.144c1.205,0.101,2.399,0.113,3.586,0.106c1.11,13.008,3.137,25.747,6.057,38.129
					c-1.104,0.453-2.206,0.921-3.292,1.479c-21.202,10.896-30.451,38.201-20.66,60.989c9.792,22.789,34.917,32.429,56.119,21.534
					c1.108-0.569,2.164-1.208,3.206-1.865c6.922,10.453,14.587,20.296,22.932,29.448c-0.772,1.003-1.53,2.024-2.234,3.113
					c-13.465,20.828-8.913,49.297,10.168,63.585c19.08,14.287,45.464,8.985,58.93-11.845c0.689-1.068,1.301-2.166,1.896-3.27
					c10.771,5.199,22.017,9.502,33.66,12.87c-0.207,1.268-0.396,2.545-0.506,3.85c-2.121,25.182,15.014,47.185,38.271,49.144
					c23.257,1.959,43.83-16.868,45.951-42.051c0.11-1.304,0.137-2.594,0.145-3.88c12.044-1.372,23.85-3.735,35.339-7.059
					c0.403,1.189,0.822,2.374,1.324,3.541c9.791,22.788,34.917,32.429,56.119,21.535c21.201-10.895,30.451-38.201,20.659-60.988
					c-0.512-1.191-1.09-2.324-1.682-3.443c9.758-7.627,18.961-16.05,27.534-25.197c0.917,0.821,1.852,1.628,2.848,2.375
					c19.082,14.288,45.465,8.985,58.93-11.844c13.466-20.831,8.913-49.297-10.167-63.586c-0.978-0.731-1.985-1.378-2.998-2.008
					c4.949-11.72,9.08-23.941,12.349-36.58C2451.958,1622.425,2453.136,1622.612,2454.34,1622.714z M2215.22,1723.38
					c-84.442-7.111-146.651-86.997-138.95-178.43c7.701-91.433,82.396-159.788,166.838-152.675
					c84.441,7.112,146.651,86.997,138.951,178.43C2374.357,1662.138,2299.661,1730.493,2215.22,1723.38z"/>
			</g>
		</g>
		<g>
			
				<linearGradient id="SVGID_00000001664314920542693030000013456537005009733022_" gradientUnits="userSpaceOnUse" x1="2545.9902" y1="3036.7598" x2="2564.7896" y2="3375.1492">
				<stop  offset="0" style="stop-color:#444B8C"/>
				<stop  offset="0.9964" style="stop-color:#26264F"/>
			</linearGradient>
			<path style="fill:url(#SVGID_00000001664314920542693030000013456537005009733022_);" d="M2593.082,3157.086
				c0,0,2.35,18.706,0.773,24.973c-1.58,6.268-55.965,10.795-74.427,8.616c-18.46-2.177,10.997-21.035,22.759-24.573
				C2553.947,3162.562,2593.082,3157.086,2593.082,3157.086z"/>
			
				<linearGradient id="SVGID_00000066473598227251238270000011484928167426131355_" gradientUnits="userSpaceOnUse" x1="2581.4946" y1="3203.5232" x2="2571.5081" y2="2746.6489">
				<stop  offset="0" style="stop-color:#FFC444"/>
				<stop  offset="0.9964" style="stop-color:#F36F56"/>
			</linearGradient>
			<path style="fill:url(#SVGID_00000066473598227251238270000011484928167426131355_);" d="M2565.704,3125.882l5.732,37.529
				c0,0,14.618,6.57,21.645,0.077l0.773-39.283L2565.704,3125.882z"/>
			
				<linearGradient id="SVGID_00000070094650284277393990000009405948194605329329_" gradientUnits="userSpaceOnUse" x1="2886.2432" y1="3017.8643" x2="2905.0415" y2="3356.2358">
				<stop  offset="0" style="stop-color:#444B8C"/>
				<stop  offset="0.9964" style="stop-color:#26264F"/>
			</linearGradient>
			<path style="fill:url(#SVGID_00000070094650284277393990000009405948194605329329_);" d="M2872.295,3124.205
				c0,0-11.541,8.563-8.464,18.818c3.075,10.256,30.003,51.348,49.194,63.011c19.189,11.663,13.175-12.635,7.59-27.769
				c-5.584-15.135-19.854-48.471-25.424-54.06C2889.621,3118.618,2872.295,3124.205,2872.295,3124.205z"/>
			
				<linearGradient id="SVGID_00000060715281667129649830000011973914169290451121_" gradientUnits="userSpaceOnUse" x1="2881.0603" y1="3196.9746" x2="2871.074" y2="2740.1072">
				<stop  offset="0" style="stop-color:#FFC444"/>
				<stop  offset="0.9964" style="stop-color:#F36F56"/>
			</linearGradient>
			<path style="fill:url(#SVGID_00000060715281667129649830000011973914169290451121_);" d="M2851.537,3082.976
				c5.579,15.549,10.945,28.332,15.142,37.761c9.284,20.861,14.359,28.689,20.107,35.475c5.013,5.911,16.878,18.523,20.067,16.423
				c3.24-2.128-5.442-17.462-22.173-62.373c-2.431-6.516-10.106-27.286-10.106-27.286l0,0H2851.537z"/>
			
				<linearGradient id="SVGID_00000076567538353811950680000011738940509187046309_" gradientUnits="userSpaceOnUse" x1="2436.4421" y1="2906.5781" x2="2626.1819" y2="2651.9272">
				<stop  offset="0" style="stop-color:#444B8C"/>
				<stop  offset="0.9964" style="stop-color:#26264F"/>
			</linearGradient>
			<path style="fill:url(#SVGID_00000076567538353811950680000011738940509187046309_);" d="M2451.809,2433.252
				c-3.979,39.083-7.799,99.744-2.089,173.366c7.442,95.92,26.622,156.617,50.674,258.89
				c14.701,62.502,34.508,154.493,52.433,269.542c4.158,2.38,16.394,8.64,32.148,6.303c8.82-1.311,15.417-4.816,19.312-7.337
				c47.029-143.706,33.139-232.76,10.444-288.244c-9.673-23.651-21.403-42.308-27.673-78.663
				c-8.296-48.099,1.962-74.987,16.589-186.401c10.427-79.411,8.621-91.686,1.684-103.594
				C2577.601,2429.5,2492.784,2430.431,2451.809,2433.252z"/>
			
				<linearGradient id="SVGID_00000170992107934944786950000005396719027704690059_" gradientUnits="userSpaceOnUse" x1="1600.0358" y1="2120.9067" x2="1668.9274" y2="2542.207" gradientTransform="matrix(0.981 -0.194 0.194 0.981 124.1931 236.6994)">
				<stop  offset="0" style="stop-color:#311944"/>
				<stop  offset="1" style="stop-color:#893976"/>
			</linearGradient>
			<path style="fill:url(#SVGID_00000170992107934944786950000005396719027704690059_);" d="M2159.336,2031.121
				c0,0-6.6-25.888-17.585-32.723c-10.984-6.833-26.51-14.139-30.068-17.14c-3.557-3.002-7.712,5.972,2.539,12.837
				c10.25,6.867,10.25,6.867,10.25,6.867c0.215,1.894-0.073,3.367-0.42,4.404c-1.624,4.861-7.163,8.193-14.01,8.823
				c-26.302,5.509-36.578,5.778-40.589,4.603c-0.595-0.174-2.883-0.916-3.849,0.1c-1.547,1.63,1.235,6.797,2.422,8.608
				c7.116,10.868,31.818,15.596,50.312,7.095c6.756-3.102,9.341-6.436,14.271-5.6c7.828,1.328,12.636,11.655,15.48,20.204
				L2159.336,2031.121z"/>
			
				<linearGradient id="SVGID_00000021096306075811068870000004984930012468417695_" gradientUnits="userSpaceOnUse" x1="2577.3901" y1="2938.1814" x2="3021.7805" y2="2523.7502">
				<stop  offset="0" style="stop-color:#444B8C"/>
				<stop  offset="0.9964" style="stop-color:#26264F"/>
			</linearGradient>
			<path style="fill:url(#SVGID_00000021096306075811068870000004984930012468417695_);" d="M2613.684,2449.965
				c28.811,148.783,57.087,226.927,78.485,271.126c5.277,10.899,22.884,46.067,39.527,96.485
				c14.735,44.626,20.875,77.456,24.021,91.905c9.933,45.606,34.481,112.197,100.534,199.537c0.823,0.485,12.087,6.855,22.854,1.177
				c5.45-2.876,8.166-7.459,9.246-9.595c-8.636-83.504-18.549-153.675-27.152-207.829c-1.808-11.359-9.757-61.054-22.226-126.708
				c-4.88-25.695-12.03-63.34-20.595-102.008c-10.662-48.153-27.015-113.662-52.218-192.158
				C2715.336,2464.583,2664.51,2457.277,2613.684,2449.965z"/>
			<path style="fill:#FFFFFF;" d="M2138.123,2039.331c7.489-6.658,14.98-13.315,22.469-19.972
				c2.742,2.77,42.723,41.785,98.614,29.959c38.483-8.144,60.68-39.747,74.898-59.918c42.705-60.589,17.164-105.046,63.146-146.216
				c12.769-11.432,37.816-25.276,54.193-21.054c39.018,10.058,61.482,127.4,23.718,219.698
				c-7.622,18.629-49.594,121.206-144.803,132.318C2253.485,2183.118,2171.969,2128.956,2138.123,2039.331z"/>
			
				<linearGradient id="SVGID_00000116207781339072430980000018265836188472428987_" gradientUnits="userSpaceOnUse" x1="2887.8582" y1="2196.2224" x2="2756.269" y2="2009.8044">
				<stop  offset="0" style="stop-color:#444B8C"/>
				<stop  offset="0.9964" style="stop-color:#26264F"/>
			</linearGradient>
			<path style="fill:url(#SVGID_00000116207781339072430980000018265836188472428987_);" d="M2589.142,1861.464
				c-16.338-15.102-47.597-32.513-63.275-72.987c-4.72-12.182-21.439-55.348,3.225-88.367
				c14.638-19.601,41.829-32.911,65.795-28.199c20.48,4.027,23.682,18.291,58.482,46.998c13.547,11.173,35.32,29.133,59.553,39.118
				c41.518,17.111,66.46,1.011,108.141,2.847c51.206,2.258,110.69,30.834,139.349,72.391
				c50.867,73.756-22.819,148.576,32.897,234.982c18.257,28.307,27.255,21.961,70.494,76.76
				c43.298,54.872,64.947,82.304,61.096,115.925c-5.347,46.659-55.604,91.231-102.931,94.26
				c-46.231,2.962-75.618-33.409-99.154-17.499c-16.753,11.319-7.174,33.343-24.966,59.808
				c-22.934,34.123-68.014,40.922-75.294,42.017c-67.575,10.194-158.687-69.044-197.385-162.921
				C2555.392,2107.314,2677.969,1943.573,2589.142,1861.464z"/>
			
				<linearGradient id="SVGID_00000052076060645786749770000014995132135248753024_" gradientUnits="userSpaceOnUse" x1="2460.6453" y1="2924.6121" x2="2650.3848" y2="2669.9617">
				<stop  offset="0" style="stop-color:#AA80F9"/>
				<stop  offset="0.9964" style="stop-color:#6165D7"/>
			</linearGradient>
			<path style="opacity:0.3;fill:url(#SVGID_00000052076060645786749770000014995132135248753024_);" d="M2614.729,2845.773
				c-9.673-23.652-21.403-42.31-27.673-78.663c-8.296-48.099,1.962-74.987,16.589-186.401c10.427-79.411,8.621-91.686,1.684-103.594
				c-15.069-25.874-47.004-37.356-79.594-42.046c0.435,1.671,0.875,3.345,1.229,4.963c17.1,78.092-48.161,125.74-18.724,211.583
				c14.512,42.324,37.669,52.018,43.064,101.112c5.055,45.988-13.276,55.569-9.361,97.367c5.852,62.482,50.24,77.604,61.79,125.452
				c7.505,31.092,1.184,76.555-53.63,142.362c0.911,5.67,1.82,11.357,2.722,17.144c4.161,2.38,16.394,8.64,32.148,6.303
				c8.82-1.311,15.417-4.816,19.312-7.337C2651.315,2990.31,2637.425,2901.256,2614.729,2845.773z"/>
			
				<linearGradient id="SVGID_00000051359075338430474350000017682800129587485332_" gradientUnits="userSpaceOnUse" x1="2138.1226" y1="2042.073" x2="2494.5654" y2="2042.073">
				<stop  offset="0" style="stop-color:#AA80F9"/>
				<stop  offset="0.9964" style="stop-color:#6165D7"/>
			</linearGradient>
			<path style="opacity:0.15;fill:url(#SVGID_00000051359075338430474350000017682800129587485332_);" d="M2442.705,1934.475
				c-70.367,55.579-62.535,162.178-105.793,167.582c-13.213,1.651-12.486-8.478-44.002-18.724
				c-46.095-14.986-67.75,0.151-100.175-11.235c-13.429-4.715-30.897-14.789-48.101-38.555c-2.171,1.93-4.342,3.858-6.511,5.787
				c33.847,89.625,115.363,143.788,192.235,134.815c95.208-11.113,137.181-113.689,144.803-132.318
				c17.719-43.308,22.178-92.128,17.888-132.793C2476.806,1913.774,2459.163,1921.476,2442.705,1934.475z"/>
			<path style="fill:#FFFFFF;" d="M2391.659,1850.215c4.312-6.698,18.021-25.257,76.199-38.935
				c29.158-6.854,83.066-18.599,152.439-3.899c95.28,20.187,154.62,77.359,176.954,101.39
				c-18.289,11.909-68.758,48.245-93.752,117.18c-7.778,21.447-30.751,94.77,2.106,163.446
				c18.931,39.574,52.422,69.282,77.857,91.851c38.152,33.844,57.91,39.046,70.699,69.368c13.928,33.019-0.107,49.119,17.19,71.725
				c18.577,24.275,40.342,12.991,71.829,37.541c32.255,25.144,20.777,45.84,50.129,73.629
				c42.651,40.374,99.194,27.261,101.825,45.429c2.266,15.628-37.919,36.831-72.061,45.43
				c-67.612,17.03-126.585-11.554-144.121-20.365c-48.553-24.392-40.166-40.18-77.184-58.776
				c-61.984-31.137-104.345,3.512-245.523,7.079c-76.453,1.935-115.111,2.369-136.289-23.497
				c-19.343-23.627-9.174-49.543,2.432-161.233c0,0,0-0.004,0.001-0.013c3.73-37.301,11.54-115.398,11.586-159.903
				c0.028-26.302-9.092-69.276-27.336-155.226c-1.077-5.069-10.95-51.504-18.927-113.534
				C2380.53,1883.047,2381.57,1865.894,2391.659,1850.215z"/>
			<g style="opacity:0.15;">
				
					<linearGradient id="SVGID_00000023261833649831917180000001823476510753946781_" gradientUnits="userSpaceOnUse" x1="2745.8496" y1="1801.3384" x2="2854.4629" y2="2465.5525">
					<stop  offset="0" style="stop-color:#AA80F9"/>
					<stop  offset="0.9964" style="stop-color:#6165D7"/>
				</linearGradient>
				<path style="fill:url(#SVGID_00000023261833649831917180000001823476510753946781_);" d="M2993.31,2533.512
					c-29.353-27.789-17.875-48.485-50.129-73.629c-31.487-24.551-53.252-13.266-71.829-37.541
					c-17.297-22.605-3.262-38.706-17.19-71.725c-12.789-30.322-32.548-35.523-70.699-69.369
					c-25.435-22.568-58.926-52.276-77.857-91.85c-32.857-68.676-9.884-141.998-2.106-163.446
					c24.994-68.935,75.463-105.271,93.752-117.18c-1.76-1.897-3.837-4.058-6.058-6.333
					c-120.496,16.559-190.751,86.184-199.439,106.801c-20.085,47.655,11.711,65.165,12.532,202.609
					c0.391,65.697-6.695,91.637,14.621,119.059c24.379,31.36,52.473,21.655,87.726,62.661c27.088,31.501,22.75,51.476,48.042,64.749
					c27.196,14.27,44.519-2.362,75.193,4.18c51.247,10.928,62.202,70.017,96.081,102.344
					c25.619,24.446,72.985,41.537,166.401,23.192c2.16-3.145,3.204-6.216,2.786-9.093
					C3092.501,2560.773,3035.961,2573.885,2993.31,2533.512z"/>
			</g>
			<path style="fill:#FFFFFF;" d="M2628.305,2046.315c-12.809,27.202,46.051,90.555,111.471,120.637
				c13.328,6.132,109.048,50.143,151.709,7.822c35.251-34.973,12.501-107.286,4.378-133.102
				c-39.883-126.769-162.364-191.254-213.695-214.512c-38.308,95.785-15.746,138.467-6.867,151.795
				c9.277,13.921,35.166,43.166,62.661,68.929c19.342,18.12,31.385,26.938,29.766,29.764c-2.016,3.518-24.687-3.126-112.743-45.987
				C2644.778,2033.313,2632.682,2037.027,2628.305,2046.315z"/>
			
				<linearGradient id="SVGID_00000178922493880683976930000005074179355464009873_" gradientUnits="userSpaceOnUse" x1="2610.9458" y1="1912.2932" x2="2570.8857" y2="1814.6467">
				<stop  offset="0" style="stop-color:#311944"/>
				<stop  offset="1" style="stop-color:#893976"/>
			</linearGradient>
			<path style="fill:url(#SVGID_00000178922493880683976930000005074179355464009873_);" d="M2581.187,1732.898
				c0,0,6.077,48.58,24.007,59.712c17.932,11.124,46.918,25.664,50.112,29.611c3.192,3.941-111.077,16.228-167.706-12.348l0,0
				c18.662-3.892,23.736-5.324,23.736-5.324c5.065-1.432,14.513-4.094,23.984-9.491c6.446-3.671,16.838-10.844,26.369-24.386
				l-0.208-26.899L2581.187,1732.898z"/>
			
				<linearGradient id="SVGID_00000040546465532060854990000010737552053988267175_" gradientUnits="userSpaceOnUse" x1="2692.425" y1="1906.1976" x2="2614.8088" y2="1801.0404">
				<stop  offset="0" style="stop-color:#311944"/>
				<stop  offset="1" style="stop-color:#893976"/>
			</linearGradient>
			<path style="fill:url(#SVGID_00000040546465532060854990000010737552053988267175_);" d="M2583.914,1750.104
				c0,0-11.691,16.046-30.024,9.359c-16.417-5.987-6.618-48.386,6.403-53.222c4.343-1.613,12.319-0.9,17.65,2.426
				c3.75,2.339,13.762,14.778,8.023,28.717c4.147-1.201,7.798-0.111,8.711,1.943c1.162,2.605-2.352,6.152-3.146,6.956
				C2588.774,1749.07,2585.448,1749.849,2583.914,1750.104z"/>
			
				<linearGradient id="SVGID_00000062907869177264130830000011470178303957237649_" gradientUnits="userSpaceOnUse" x1="2604.7717" y1="1995.1901" x2="2686.5054" y2="2495.0244">
				<stop  offset="0" style="stop-color:#311944"/>
				<stop  offset="1" style="stop-color:#893976"/>
			</linearGradient>
			<path style="fill:url(#SVGID_00000062907869177264130830000011470178303957237649_);" d="M2650.545,2039.954
				c0,0-53.677-54.924-75.522-63.036c-21.844-8.115-8.737,3.744,0,10.61c8.738,6.865,14.561,9.122,10.09,19.54
				c-4.472,10.42-12.593,19.667,0.206,27.838c12.797,8.17,17.792,11.292,27.779,12.538c9.985,1.25,9.985,1.25,9.985,1.25
				l13.108,6.989C2636.19,2055.682,2653.041,2053.686,2650.545,2039.954z"/>
		</g>
		<g>
			
				<linearGradient id="SVGID_00000050631393800710315550000010601653375144511911_" gradientUnits="userSpaceOnUse" x1="1234.7716" y1="3211.6553" x2="1317.3501" y2="3211.6553" gradientTransform="matrix(-0.9996 0.0289 0.0289 0.9996 2205.6753 -31.2392)">
				<stop  offset="0" style="stop-color:#444B8C"/>
				<stop  offset="0.9964" style="stop-color:#26264F"/>
			</linearGradient>
			<path style="fill:url(#SVGID_00000050631393800710315550000010601653375144511911_);" d="M987.892,3197.923
				c-4.516,3.671-5.346,12.837-5.888,18.829c-0.244,2.677-0.364,4.016-0.065,4.961c2.182,6.896,15.556,7.621,36.528,9.764
				c33.142,3.386,43.004,5.994,45.598,1.063c2.431-4.622-3.451-12.19-4.114-13.024c-3.561-4.486-7.932-6.118-16.382-8.899
				c-15.636-5.146-26.201-7.965-29.4-8.817C994.194,3196.466,990.858,3195.513,987.892,3197.923z"/>
			
				<linearGradient id="SVGID_00000109720613184686232230000005522337082285046930_" gradientUnits="userSpaceOnUse" x1="1660.4225" y1="3199.2595" x2="1696.651" y2="3124.2751" gradientTransform="matrix(-0.9925 0.1225 0.1225 0.9925 2272.9387 -162.6817)">
				<stop  offset="0" style="stop-color:#FFC444"/>
				<stop  offset="0.9964" style="stop-color:#F36F56"/>
			</linearGradient>
			<path style="fill:url(#SVGID_00000109720613184686232230000005522337082285046930_);" d="M1007.601,3167.646l3.317,37.767
				c-0.942,1.823-12.167,7.294-21.084,2.603l-8.522-37.123L1007.601,3167.646z"/>
			
				<linearGradient id="SVGID_00000159445743504855274410000001036827962476818833_" gradientUnits="userSpaceOnUse" x1="1728.9" y1="3143.356" x2="1816.6344" y2="3143.356" gradientTransform="matrix(-0.9642 0.2651 0.2651 0.9642 2192.8501 -308.9189)">
				<stop  offset="0" style="stop-color:#444B8C"/>
				<stop  offset="0.9964" style="stop-color:#26264F"/>
			</linearGradient>
			<path style="fill:url(#SVGID_00000159445743504855274410000001036827962476818833_);" d="M1277.62,3181.221
				c-5.412,5.977-6.645,16.983-1.939,22.405c4.626,5.331,11.582,1.333,31.31,1.921c21.133,0.632,26.651,5.623,41.011,1.66
				c5.801-1.604,16.048-5.493,15.853-9.636c-0.137-2.914-5.353-4.418-22.776-10.255c-24.731-8.284-24.622-8.737-29.874-9.607
				C1298.014,3175.524,1284.768,3173.33,1277.62,3181.221z"/>
			
				<linearGradient id="SVGID_00000158730115195583033890000003681597389974409148_" gradientUnits="userSpaceOnUse" x1="1556.6188" y1="3175.7603" x2="1593.6163" y2="3099.1838" gradientTransform="matrix(-0.9802 0.1979 0.1979 0.9802 2204.0603 -227.1835)">
				<stop  offset="0" style="stop-color:#FFC444"/>
				<stop  offset="0.9964" style="stop-color:#F36F56"/>
			</linearGradient>
			<path style="fill:url(#SVGID_00000158730115195583033890000003681597389974409148_);" d="M1291.16,3146.754l10.599,35.257
				c-0.801,1.892-11.576,8.2-20.823,4.204l-15.742-34.22L1291.16,3146.754z"/>
			
				<linearGradient id="SVGID_00000037687326677373720890000010945470699364503222_" gradientUnits="userSpaceOnUse" x1="1330.3312" y1="3037.4333" x2="1096.3271" y2="2509.9324">
				<stop  offset="0" style="stop-color:#444B8C"/>
				<stop  offset="0.9964" style="stop-color:#26264F"/>
			</linearGradient>
			<path style="fill:url(#SVGID_00000037687326677373720890000010945470699364503222_);" d="M1196.985,2374.572
				c1.518,118.49,9.604,251.719,29.005,396.463c19.174,143.058,46.046,272.318,75.358,385.983
				c-13.523,3.638-27.046,7.277-40.569,10.915c-34.309-31.991-77.589-82.35-98.473-153.516
				c-12.961-44.17-8.642-66.867-16.864-121.195c-13.091-86.502-39.607-131.822-67.013-201.577
				c-24.628-62.682-53.739-154.674-69.347-277.638C1071.717,2400.863,1134.351,2387.717,1196.985,2374.572z"/>
			
				<linearGradient id="SVGID_00000078009484941520602040000002167013508591922306_" gradientUnits="userSpaceOnUse" x1="733.8243" y1="3079.1353" x2="499.8244" y2="2551.6438" gradientTransform="matrix(0.9925 -0.1225 0.1225 0.9925 83.0051 108.1241)">
				<stop  offset="0" style="stop-color:#444B8C"/>
				<stop  offset="0.9964" style="stop-color:#26264F"/>
			</linearGradient>
			<path style="fill:url(#SVGID_00000078009484941520602040000002167013508591922306_);" d="M1048.025,2375.114
				c-8.277,150.7-15.084,304.204-20.243,460.428c-3.872,117.229-6.715,232.973-8.604,347.193
				c-13.813,1.706-27.627,3.412-41.442,5.116c-13.347-24.851-31.076-62.845-43.221-111.543
				c-14.751-59.144-11.335-94.267-17.804-155.565c-7.258-68.751-17.8-83.729-36.476-170.458
				c-37.905-176.012-56.858-264.02-14.574-318.764C879.387,2413.75,922.417,2369.167,1048.025,2375.114z"/>
			
				<linearGradient id="SVGID_00000016062510837481975480000012310584189637281160_" gradientUnits="userSpaceOnUse" x1="1119.8131" y1="2001.3396" x2="925.658" y2="2341.7754">
				<stop  offset="0" style="stop-color:#AA80F9"/>
				<stop  offset="0.9964" style="stop-color:#6165D7"/>
			</linearGradient>
			<path style="fill:url(#SVGID_00000016062510837481975480000012310584189637281160_);" d="M861.103,1877.286
				c13.075-5.805,30.92-6.82,53.262-13.18c28.616-8.147,59.583-7.932,106.693-9.335c67.634-2.014,110.947-3.303,153.566,12.7
				c95.477,35.852,179.074,155.342,157.011,243.687c-20.14,80.644-118.034,94.148-113.967,167.593
				c1.863,33.65,20.914,65.008,7.718,112.013c-2.611,9.301-7.987,17.364-17.182,31.006
				c-45.498,67.505-194.283-41.616-275.098,17.215c-43.37,31.573-43.438,90.096-76.662,90.626
				c-23.007,0.367-40.662-27.411-47.282-37.826C745.736,2391.992,838.209,1976.691,861.103,1877.286z"/>
			
				<linearGradient id="SVGID_00000160152955132637056540000012854367651345149315_" gradientUnits="userSpaceOnUse" x1="904.4979" y1="2273.3" x2="1191.7262" y2="2002.0291">
				<stop  offset="0" style="stop-color:#AA80F9"/>
				<stop  offset="0.9964" style="stop-color:#6165D7"/>
			</linearGradient>
			<path style="fill:url(#SVGID_00000160152955132637056540000012854367651345149315_);" d="M861.103,1877.286
				c13.075-5.805,30.92-6.82,53.262-13.18c28.616-8.147,59.583-7.932,106.693-9.335c67.634-2.014,110.947-3.303,153.566,12.7
				c95.477,35.852,179.074,155.342,157.011,243.687c-20.14,80.644-118.034,94.148-113.967,167.593
				c1.863,33.65,20.914,65.008,7.718,112.013c-2.611,9.301-7.987,17.364-17.182,31.006
				c-45.498,67.505-194.283-41.616-275.098,17.215c-43.37,31.573-43.438,90.096-76.662,90.626
				c-23.007,0.367-40.662-27.411-47.282-37.826C745.736,2391.992,838.209,1976.691,861.103,1877.286z"/>
			<g style="opacity:0.3;">
				
					<linearGradient id="SVGID_00000096752631960554490070000003092703216411149983_" gradientUnits="userSpaceOnUse" x1="1115.926" y1="1999.1234" x2="921.7712" y2="2339.5586">
					<stop  offset="0" style="stop-color:#AA80F9"/>
					<stop  offset="0.9964" style="stop-color:#6165D7"/>
				</linearGradient>
				<path style="fill:url(#SVGID_00000096752631960554490070000003092703216411149983_);" d="M1006.567,2360.574
					c-29.253-69.329,65.051-145.537,26.596-225.184c-32.252-66.801-117.468-52.296-156.033-122.344
					c-23.594-42.855-17.153-94.528-2.476-140.053c-4.951,1.179-9.506,2.498-13.551,4.293
					c-22.894,99.405-115.368,514.706-51.941,614.498c6.62,10.415,24.275,38.193,47.282,37.826
					c33.225-0.53,33.292-59.053,76.662-90.626c72.052-52.452,198.13,28.595,256.87-1.053
					C1062.686,2427.795,1020.267,2393.042,1006.567,2360.574z"/>
			</g>
			
				<linearGradient id="SVGID_00000054983570465885919160000012734616352222534037_" gradientUnits="userSpaceOnUse" x1="801.9811" y1="2164.7534" x2="1089.2087" y2="1893.4833">
				<stop  offset="0" style="stop-color:#AA80F9"/>
				<stop  offset="0.9964" style="stop-color:#6165D7"/>
			</linearGradient>
			<path style="fill:url(#SVGID_00000054983570465885919160000012734616352222534037_);" d="M861.103,1877.286
				c-93.867,36.683-180.673,155.843-161.144,265.292c3.252,18.236,16.531,93.095,80.051,129.442
				c58.234,33.323,136.867,24.753,199.869-22.443c8.608-7.64,17.22-15.278,25.829-22.919c8.471-9.156,16.943-18.311,25.412-27.468
				c-13.316-11.076-35.94-27.053-67.714-37.306c-41.282-13.321-70.654,9.086-91.824-7.703
				c-16.531-13.11-17.395-38.385-16.763-60.302C857.154,2012.786,884.382,1868.189,861.103,1877.286z"/>
			<g>
				
					<linearGradient id="SVGID_00000083792048806710603760000000831011127112925591_" gradientUnits="userSpaceOnUse" x1="1201.6217" y1="2390.3267" x2="1157.0024" y2="2263.905">
					<stop  offset="0" style="stop-color:#311944"/>
					<stop  offset="1" style="stop-color:#893976"/>
				</linearGradient>
				<polygon style="fill:url(#SVGID_00000083792048806710603760000000831011127112925591_);" points="1331.254,2237.835 
					962.405,2232.329 1060.488,2279.665 1332.197,2261.882 				"/>
				
					<linearGradient id="SVGID_00000017478033683883055600000013984962034143558801_" gradientUnits="userSpaceOnUse" x1="1006.6996" y1="2207.1611" x2="1023.0601" y2="2320.1968">
					<stop  offset="0" style="stop-color:#311944"/>
					<stop  offset="1" style="stop-color:#893976"/>
				</linearGradient>
				<path style="fill:url(#SVGID_00000017478033683883055600000013984962034143558801_);" d="M949.388,2242.131v0.001
					c0,6.903,4.32,13.069,10.807,15.428l117.859,46.204l0.537-32.032l-116.186-39.403
					C955.885,2230.455,949.388,2235.348,949.388,2242.131z"/>
			</g>
			
				<linearGradient id="SVGID_00000005225166989414321950000007905201791901557650_" gradientUnits="userSpaceOnUse" x1="1005.9293" y1="2224.9045" x2="1098.3938" y2="2224.9045">
				<stop  offset="0" style="stop-color:#FFC444"/>
				<stop  offset="0.9964" style="stop-color:#F36F56"/>
			</linearGradient>
			<path style="fill:url(#SVGID_00000005225166989414321950000007905201791901557650_);" d="M1006.184,2220.306
				c-2.264-0.506,11.028-26.99,21.463-23.934c10.433,3.057,61.468,32.634,66.107,44.813c4.639,12.178,4.639,12.178,4.639,12.178
				s-22.262,1.74-36.068-2.899C1048.519,2245.825,1024.592,2224.41,1006.184,2220.306z"/>
			<g>
				<g>
					
						<linearGradient id="SVGID_00000022560747703371237400000005116060857632746670_" gradientUnits="userSpaceOnUse" x1="1330.8738" y1="2217.0613" x2="1243.8822" y2="2093.5334">
						<stop  offset="0" style="stop-color:#444B8C"/>
						<stop  offset="0.9964" style="stop-color:#26264F"/>
					</linearGradient>
					<path style="fill:url(#SVGID_00000022560747703371237400000005116060857632746670_);" d="M1088.376,2046.978l-26,236.726
						c-0.897,8.168,10.538,20.337,18.747,19.949l381.409-23.415c6.268-0.298,11.486-4.91,12.547-11.094l47.872-228.636
						c1.428-8.32-13.529-16.914-21.967-16.678l-399.693,11.238C1094.616,2035.257,1089.104,2040.339,1088.376,2046.978z"/>
					
						<linearGradient id="SVGID_00000094616053078902858280000014529239373002231447_" gradientUnits="userSpaceOnUse" x1="1164.0085" y1="2421.4978" x2="1354.3853" y2="2034.7955">
						<stop  offset="0" style="stop-color:#311944"/>
						<stop  offset="1" style="stop-color:#893976"/>
					</linearGradient>
					<path style="fill:url(#SVGID_00000094616053078902858280000014529239373002231447_);" d="M1097.093,2053.879l-26,236.728
						c-0.896,8.168,5.716,15.204,13.924,14.818l386.233-18.285c6.266-0.297,11.485-4.91,12.546-11.093l39.46-229.682
						c1.429-8.322-5.115-15.87-13.554-15.631l-399.694,11.238C1103.334,2042.159,1097.82,2047.243,1097.093,2053.879z"/>
				</g>
				
					<linearGradient id="SVGID_00000176014292308851361630000000855990692532140692_" gradientUnits="userSpaceOnUse" x1="1071.0111" y1="2173.2996" x2="1489.2421" y2="2173.2996">
					<stop  offset="0" style="stop-color:#311944"/>
					<stop  offset="1" style="stop-color:#893976"/>
				</linearGradient>
				<path style="opacity:0.3;fill:url(#SVGID_00000176014292308851361630000000855990692532140692_);" d="M1323.889,2231.669
					c-33.725-14.293-21.821-41.551-61.646-75.516c-52.537-44.808-106.088-25.375-124.834-60.105
					c-5.838-10.817-8.626-27.648,1.543-54.889l-28.943,0.814c-6.674,0.186-12.188,5.27-12.915,11.907l-26,236.728
					c-0.895,8.167,5.718,15.204,13.924,14.818l386.233-18.285c6.266-0.297,11.485-4.909,12.546-11.093l5.445-31.694
					c-11.719-6.521-25.722-12.451-42.062-15.766C1390.516,2217.094,1362.715,2248.125,1323.889,2231.669z"/>
			</g>
			
				<linearGradient id="SVGID_00000008118651963070509460000014841394064808727941_" gradientUnits="userSpaceOnUse" x1="1430.6755" y1="2224.0205" x2="1513.026" y2="2328.4084">
				<stop  offset="0" style="stop-color:#FFC444"/>
				<stop  offset="0.9964" style="stop-color:#F36F56"/>
			</linearGradient>
			<path style="fill:url(#SVGID_00000008118651963070509460000014841394064808727941_);" d="M1495.583,2254.03
				c0.628-1.907-0.703-3.871-2.709-3.973c-8.163-0.416-27.095-0.585-37.547,5.815c-13.577,8.317-31.133,23.493-16.349,31.15
				l13.805,7.152c0.634,0.329,1.324,0.43,2.02,0.278c4.905-1.079,25.552-5.659,27.81-6.797
				C1484.668,2286.62,1492.54,2263.259,1495.583,2254.03z"/>
			<g>
				
					<linearGradient id="SVGID_00000157310627051379958300000001316479513752709295_" gradientUnits="userSpaceOnUse" x1="1393.2205" y1="1728.3832" x2="1402.4307" y2="1483.0547" gradientTransform="matrix(0.917 0.3988 -0.3988 0.917 399.6047 -184.8945)">
					<stop  offset="0" style="stop-color:#FFC444"/>
					<stop  offset="0.9964" style="stop-color:#F36F56"/>
				</linearGradient>
				<path style="fill:url(#SVGID_00000157310627051379958300000001316479513752709295_);" d="M1027.242,1764.292
					c0.206,24.552-2.533,44.023-5.124,57.357c-2.968,15.278-5.107,19.225-7.837,22.428c-4.109,4.821-10.336,8.865-45.517,17.59
					c-19.145,4.746-21.608,4.617-22.031,6.517c-2.062,9.268,50.143,40.856,104.077,33.242c33.009-4.659,63.042-23.491,61.198-33.38
					c-1.856-9.952-34.828-4.612-44.655-22.618c-6.837-12.526,0.827-30.308,9.885-45.034
					C1068.464,1783.954,1036.015,1780.73,1027.242,1764.292z"/>
				<g>
					
						<linearGradient id="SVGID_00000155861214792780729750000013829702111402751883_" gradientUnits="userSpaceOnUse" x1="1048.7026" y1="1722.2982" x2="986.2546" y2="1563.6915" gradientTransform="matrix(-1 0.0037 0.0037 1 2039.0248 162.9159)">
						<stop  offset="0" style="stop-color:#311944"/>
						<stop  offset="1" style="stop-color:#6B3976"/>
					</linearGradient>
					<path style="fill:url(#SVGID_00000155861214792780729750000013829702111402751883_);" d="M1088.507,1773.998
						c7.79-10.348,8.271-28.415-0.705-39.834c-7.725-9.827-19.88-11.228-27.158-12.07c-21.088-2.435-47.696,6.369-56.951,25.777
						c-5.484,11.502,6.379,35.401,8.236,39.698c2.104,4.858,5.917,6.524,9.446,10.198c4.889,5.094,12.544,13.194,25.039,26.741
						c0.971-3.997,2.447-8.946,4.792-14.309c0.903-2.065,4.528-10.128,10.014-16.815
						C1072.211,1779.982,1081.123,1783.805,1088.507,1773.998z"/>
					
						<linearGradient id="SVGID_00000012448034027018943830000014717625723911435195_" gradientUnits="userSpaceOnUse" x1="417.098" y1="1585.2749" x2="414.2263" y2="1816.6494" gradientTransform="matrix(0.9979 -0.0649 0.0649 0.9979 531.9276 219.5886)">
						<stop  offset="0" style="stop-color:#FFC444"/>
						<stop  offset="0.9964" style="stop-color:#F36F56"/>
					</linearGradient>
					<path style="fill:url(#SVGID_00000012448034027018943830000014717625723911435195_);" d="M1028.591,1813.117
						c0,0,13.863,22.743,41.465,20.948c24.713-1.609,28.332-57.029,12.548-68.79c-5.266-3.923-15.813-5.552-24.388-3.15
						c-5.065,1.42-6.781,3.524-15.101,5.682c-7.676,1.992-9.843,1.141-12.161,3.09c-2.898,2.44-5.021,8.419-0.181,24.62
						c-4.716-4.774-10.374-6.606-14.385-4.713c-0.639,0.303-2.336,1.457-3.291,3.206
						C1009.642,1800.341,1015.423,1808.425,1028.591,1813.117z"/>
					
						<linearGradient id="SVGID_00000078004020890925934450000013847157820742280848_" gradientUnits="userSpaceOnUse" x1="1029.6255" y1="1729.8931" x2="967.1139" y2="1571.1251" gradientTransform="matrix(-1 0.0037 0.0037 1 2039.0248 162.9159)">
						<stop  offset="0" style="stop-color:#311944"/>
						<stop  offset="1" style="stop-color:#6B3976"/>
					</linearGradient>
					<path style="fill:url(#SVGID_00000078004020890925934450000013847157820742280848_);" d="M1029.837,1767.583
						c1.192,0.889-2.452,5.335-2.723,11.629c-0.529,12.216,11.837,26.88,24.451,28.123c7.458,0.735,9.507-3.76,21.836-5.063
						c7.633-0.806,13.987,0.165,17.984,1.038c3.874,13.399,0.229,26.756-8.726,32.954c-9.641,6.672-21.957,2.625-27.106,0.932
						c-3.445-1.132-14.483-4.738-20.252-14.86c-6.011-10.548-0.112-16.907-7.008-24.041c-3.478-3.599-8.047-5.157-12.495-12.124
						c-1.208-1.893-2.014-3.567-2.507-4.693C1019.667,1774.72,1028.111,1766.295,1029.837,1767.583z"/>
					
						<linearGradient id="SVGID_00000003806627110044361150000008852645047565404836_" gradientUnits="userSpaceOnUse" x1="968.4445" y1="1634.229" x2="971.6955" y2="1663.2114" gradientTransform="matrix(-1 0.0037 0.0037 1 2039.0248 162.9159)">
						<stop  offset="0" style="stop-color:#FFC444"/>
						<stop  offset="1" style="stop-color:#F36F56"/>
					</linearGradient>
					<path style="fill:url(#SVGID_00000003806627110044361150000008852645047565404836_);" d="M1082.413,1808.276
						c0,0-5.338,2.788-14.56,2.27c-0.448-0.026-0.944,0.106-1.001,0.338c-0.212,0.875,5.705,4.798,11.157,3.266
						c3.871-1.089,6.883-4.754,6.362-5.686C1084.15,1808.071,1083.275,1808.123,1082.413,1808.276z"/>
				</g>
			</g>
		</g>
	</g>
</g>
</svg>
