<?xml version="1.0" encoding="utf-8"?>
<!-- Generator: Adobe Illustrator 27.5.0, SVG Export Plug-In . SVG Version: 6.00 Build 0)  -->
<svg version="1.1" xmlns="http://www.w3.org/2000/svg" xmlns:xlink="http://www.w3.org/1999/xlink" x="0px" y="0px"
	 viewBox="0 0 1000 800" style="enable-background:new 0 0 1000 800;" xml:space="preserve">
<g id="background">
	<rect x="0" y="0" style="fill:#FFFFFF;" width="1000" height="800"/>
</g>
<g id="shadow">
	<g style="opacity:0.5;">
		<path style="fill:#EED5D5;" d="M476.785,681.854c-25.76,0.061-51.52,0.557-77.234,2.844c-9.696,0.862-19.188,2.76-28.905,3.525
			c-19.411,1.529-38.474,4.38-57.953,5.695c-15.686,1.059-31.439,1.684-47.08,3.028c-14.664,1.26-30.899,0.969-45.45-1.112
			c-10.772-1.541-21.594-2.409-32.186-4.884c-11.848-2.769-24.72-4.749-37.065-4.677c-17.604,0.102-34.747,0.113-51.593,5.003
			c-5.914,1.716-13.153,4.537-17.644,8.139c-10.28,8.245-11.672,28.818-1.407,37.37c17.289,14.392,54.188,20.04,78.422,20.306
			c26.555,0.292,52.352-1.284,78.946-2.212c24.712-0.862,49.361-2.087,74.114-2.044c50.554,0.088,101.115,0,151.579-2.701
			c47.411-2.538,94.942-1.667,142.457-1.667c48.725,0,97.12,0.306,145.493,5.486c21.077,2.257,42.549,3.047,63.732,4.628
			c18.971,1.416,37.201-0.028,56.097-1.337c15.866-1.099,31.629-4.358,46.043-9.868c11.41-4.361,31.751-17.911,35.25-28.321
			c9.809-29.186-138.246-28.484-160.978-28.418c-25.43,0.073-51.062,0.743-76.472-0.033c-10.689-0.326-21.22-1.997-31.652-3.828
			c-10.391-1.824-20.86-1.36-31.397-2.127c-43.942-3.196-87.982-2.729-132.065-2.729C505.49,681.921,491.137,681.82,476.785,681.854
			z"/>
	</g>
</g>
<g id="object">
	<g>
		<g>
			<g id="XMLID_234_">
				<circle id="XMLID_235_" style="fill:#D67086;" cx="787.545" cy="230.667" r="102.479"/>
			</g>
		</g>
		<g>
			<g id="XMLID_232_">
				
					<ellipse id="XMLID_233_" transform="matrix(0.1638 -0.9865 0.9865 0.1638 146.8246 800.2104)" style="fill:#474EBB;" cx="545.451" cy="313.494" rx="71.842" ry="71.842"/>
			</g>
		</g>
		<g>
			<g id="XMLID_230_">
				
					<ellipse id="XMLID_231_" transform="matrix(0.7071 -0.7071 0.7071 0.7071 -132.5236 307.0483)" style="fill:#D67086;" cx="304.378" cy="313.494" rx="86.964" ry="86.964"/>
			</g>
		</g>
		<g>
			<g id="XMLID_228_">
				<circle id="XMLID_229_" style="fill:#474EBB;" cx="123.357" cy="204.36" r="68.886"/>
			</g>
		</g>
		<g>
			<g id="XMLID_226_">
				
					<ellipse id="XMLID_227_" transform="matrix(0.9899 -0.1416 0.1416 0.9899 -12.8316 67.1845)" style="fill:#3B3387;" cx="465.766" cy="123.774" rx="90.208" ry="90.208"/>
			</g>
		</g>
		<g>
			<g>
				<polygon style="fill:#3B3387;" points="135.973,715.201 135.209,721.143 146.33,728.614 153.037,723.436 147.858,716.729 
					136.737,709.258 				"/>
				<g>
					<polygon style="fill:#BABCBE;" points="135.597,713.206 144.174,637.416 133.854,552.569 136.175,534.52 182.267,532.769 
						183.93,562.145 176.193,637.532 147.082,717.079 					"/>
				</g>
				<polygon style="fill:#8CABEF;" points="186.593,448.912 209.778,455.226 248.782,531.831 236.08,543.591 206.014,493.33 				"/>
				<g>
					<polygon style="fill:#BABCBE;" points="216.087,541.263 216.209,617.745 200.814,716.202 189.733,716.091 183.642,625.041 
						169.387,533.909 					"/>
					<polygon style="fill:#3B3387;" points="189.75,720.765 201.673,726.876 207.724,720.944 201.793,714.893 189.81,714.773 					
						"/>
				</g>
				<g>
					<path style="fill:#8CABEF;" d="M129.084,567.274c0.106-3.314,0.29-6.08,0.316-7.068c0.237-8.891,1.029-17.762,2.143-26.59
						c0.997-7.911,2.256-27.549,3.61-35.411c1.118-6.491,5.013-22.694,7.827-28.715c6.999-14.973,4.836-16.357,35.58-20.802
						c13.474-1.949,16.659,6.448,27.674,16.105c1.086,0.952,1.027,6.623,1.279,8.125c0.444,2.644,0.919,5.284,1.465,7.912
						c0.429,2.065,0.902,4.124,1.432,6.169l-0.001-0.001c0,0,9.248,42.083,15.363,51.021c6.115,8.938,18.749,21.433-2.384,29.062
						c-3.745,1.211-7.514,2.363-11.412,2.978c0,0-17.284-1.921-26.173-1.854c-8.187,0.061-16.407,0.89-24.455,2.277
						c-5.382,0.899-10.874,2.207-15.688,4.721c-4.593,2.399-7.908,5.928-12.568,8.413c-0.441,0.235-0.925,0.479-1.427,0.409
						C128.988,583.655,128.862,574.25,129.084,567.274z"/>
				</g>
				<g>
					<path style="fill:#CC937A;" d="M178.596,452.911c-1.551,0.766-5.212,1.041-9.032-0.455c-0.77-0.301-1.289-1.044-1.278-1.87
						c0.03-2.32,0.217-4.638,0.558-6.932c-2.865-1.007-6.175-2.518-6.674-5.513c-0.157-0.943,0.006-1.907,0.169-2.85
						c0.673-3.896,1.346-7.792,2.02-11.688c0.233-1.348,0.481-2.735,1.213-3.889c1.286-2.026,3.781-2.912,6.146-3.323
						c6.033-1.047,12.607,0.26,17.285,4.211c1.245,1.052,2.371,2.316,2.92,3.85c0.846,2.366,0.213,4.976-0.425,7.406
						c-0.589,2.243-1.178,4.487-1.767,6.73c-0.678,2.58-1.656,5.513-4.142,6.481c-1.32,0.514-2.878,0.364-4.073,1.124
						C179.408,447.533,179.692,450.666,178.596,452.911z"/>
					<path style="fill:#292949;" d="M213.416,414.056c0.592-0.973,1.231-1.912,1.945-2.792c1.547-1.907,3.453-3.542,4.698-5.659
						c1.245-2.117,1.683-4.987,0.189-6.936c-0.964-1.258-2.528-1.887-4.049-2.335c-5.01-1.474-10.417-1.574-15.478-0.286
						c-4.82,1.227-9.135,3.259-13.987,1.447c-4.559-1.703-7.853-1.009-12.618,0.691c-5.157,1.84-12.079,2.274-16.747,4.872
						c-1.949,1.085-3.505,2.78-4.717,4.652c-4.2,6.487-4.223,15.432-0.057,21.941c0.935,1.46,2.053,2.795,3.229,4.07
						c2.433,2.638,5.343,5.897,8.689,6.875c0.08-2.994-2.647-12.434-0.348-14.888c3.649-3.894,11.899-2.535,16.425-1.577
						c4.937,1.046,9.338,4.542,14.233,5.289c3.522,0.538,8.018-1.19,11.013-3.01C209.533,424.161,211.253,417.607,213.416,414.056z"
						/>
				</g>
				<polygon style="fill:#8CABEF;" points="153.037,454.443 133.854,471.251 112.455,516.221 139.484,548.377 144.134,530.395 				
					"/>
			</g>
		</g>
		<g>
			<g>
				<g>
					<polygon style="fill:#CC937A;" points="575.313,456.613 566.797,450.856 569.099,447.109 575.804,449.76 576.07,447.483 
						582.757,453.297 580.89,457.516 					"/>
				</g>
				<g>
					<polygon style="fill:#2F3789;" points="658.394,444.123 624.659,465.976 581.153,450.569 577.876,459.129 625.209,488.703 
						672.495,471.245 					"/>
				</g>
			</g>
			<g id="XMLID_221_">
				<g id="XMLID_225_">
					<polygon style="fill:#3B3387;" points="659.091,715.187 659.091,720.012 646.718,726.198 640.532,720.012 646.718,713.825 
						647.516,713.825 647.715,715.187 					"/>
				</g>
				<g id="XMLID_224_">
					<polygon style="fill:#3B3387;" points="659.091,715.187 647.715,715.187 647.516,713.825 659.091,713.825 					"/>
				</g>
				<g>
					<path style="fill:#2F3789;" d="M676.299,440.725c13.297,0.8,26.927,7.773,30.742,20.719c0.314,1.066,0.559,2.157,0.648,3.265
						c0.532,6.651-1.5,11.565,0.419,18.246c1.667,5.805,3.179,11.695,4.288,17.635c1.606,8.598,3.089,17.155,4.257,25.69
						c1.294,9.453,2.205,18.877,2.469,28.247c0.029,1.036,0.238,3.932,0.355,7.393c0.245,7.248,0.088,16.944-2.964,17.306
						c-0.571,0.068-1.123-0.185-1.625-0.429c-3.926-1.907-7.019-4.398-10.481-6.574c-1.217-0.765-2.479-1.492-3.84-2.14
						c-2.727-1.298-5.64-2.288-8.628-3.072c5.024,0.262,5.649-0.669,5.649-0.669s-4.533-18.206-7.716-34.042
						c-1.64-8.161-2.922-15.694-3.04-19.779c-0.353-12.286-1.926-52.865-1.926-52.865l-7.627-15.521l-1.408,0.013
						c0.101-0.012,0.203-0.024,0.304-0.036C676.035,442.786,676.096,441.687,676.299,440.725z"/>
					<path style="fill:#2F3789;" d="M619.731,571.159c0.781-8.046,1.591-16.09,2.581-24.114c1.975-16.003,4.662-31.968,9.209-47.46
						c1.737-5.918,3.741-11.754,5.744-17.588c2.44-7.104,4.879-14.208,7.319-21.311c3.032-8.829,8.149-15.049,17.109-18.137
						c1.6-0.552,3.285-0.977,5.021-1.289c0.042,0.183,0.081,0.368,0.105,0.563c0.104,0.848,0.346,1.788,0.883,2.403l-5.881,0.056
						c0,0-16.592,57.983-17.202,67.977c-0.232,3.799-1.002,12.092-1.86,20.828c-1.357,13.825-2.932,28.762-2.932,28.762
						s7.284,0.172,17.822,0.958c-0.78-0.018-1.559-0.039-2.338-0.045c-7.329-0.065-14.931,3.049-21.949,5.067
						c-0.504,0.145-1.006,0.285-1.504,0.417c-2.859,0.759-5.185,2.842-7.56,4.476C620.791,575.134,619.252,576.089,619.731,571.159z
						"/>
				</g>
				<g>
					<path style="fill:#292949;" d="M633.362,567.827c7.017-2.018,14.619-5.132,21.949-5.067c0.778,0.007,1.558,0.027,2.338,0.045
						c0.652,0.049,1.317,0.1,1.993,0.153c4.911,0.388,10.43,0.907,16.191,1.595c0.283,0.034,0.565,0.066,0.849,0.101
						c7.369,1.577,12.153,2.194,15.26,2.356c2.988,0.784,5.901,1.773,8.628,3.072c1.361,0.648,2.623,1.375,3.84,2.14l0.039,7.873
						l-14.049,133.73H678.88v1.362h-0.066l-12.665-89.701l-0.053-0.505l-6.939,90.206h-0.066v-1.362h-11.575l-14.681-100.45
						L633.362,567.827z"/>
				</g>
				<g id="XMLID_223_">
					<polygon style="fill:#3B3387;" points="690.399,713.825 691.253,713.825 697.439,720.012 691.253,726.198 678.88,720.012 
						678.88,715.187 690.256,715.187 					"/>
				</g>
				<g id="XMLID_222_">
					<polygon style="fill:#3B3387;" points="690.399,713.825 690.256,715.187 678.88,715.187 678.88,713.825 					"/>
				</g>
				<g>
					<path style="fill:#F7F7F7;" d="M639.826,561.847c0,0,7.284,0.172,17.822,0.958c0.652,0.049,1.317,0.1,1.993,0.153
						c4.911,0.388,10.43,0.907,16.191,1.595c0.283,0.034,0.565,0.067,0.849,0.101c7.369,1.577,12.153,2.194,15.26,2.355
						c5.025,0.262,5.649-0.669,5.649-0.669s-4.533-18.206-7.715-34.042c-1.64-8.161-2.922-15.694-3.04-19.779
						c-0.353-12.286-1.926-52.865-1.926-52.865l-7.627-15.521l-1.408,0.013c-1.944,0.23-3.888,0.46-5.832,0.69
						c-0.502,0.06-1.024,0.117-1.504-0.041c-0.241-0.079-0.451-0.204-0.632-0.361c-0.073-0.064-0.14-0.136-0.205-0.209l-5.881,0.056
						c0,0-16.592,57.983-17.201,67.977c-0.232,3.799-1.003,12.092-1.86,20.828C641.401,546.911,639.826,561.847,639.826,561.847z"/>
				</g>
				<g>
					<path style="fill:#CC937A;" d="M657.401,422.781c0.382-1.565-0.352-3.158-0.699-4.732c-0.088-0.398-0.104-0.808-0.08-1.224
						c2.795-0.483,5.615-1.521,7.669-2.418c4.275-1.866,12.602-3.854,17.041-1.65c3.51,1.743,2.432,7.301,2.256,10.816
						c-0.045,0.904-0.115,1.824,0.093,2.702c0.215,0.905,0.777,1.516,1.128,2.277c-0.391,1.37-1.033,2.67-2.076,3.849
						c-2.813,3.176-5.675,4.738-6.433,8.322c-0.203,0.962-0.264,2.061-0.122,3.386c-0.101,0.012-0.202,0.024-0.304,0.036
						c-1.944,0.23-3.888,0.46-5.832,0.69c-0.502,0.06-1.024,0.117-1.504-0.041c-0.241-0.079-0.451-0.204-0.632-0.361
						c-0.073-0.064-0.14-0.135-0.205-0.209c-0.536-0.615-0.779-1.556-0.883-2.403c-0.024-0.195-0.062-0.38-0.105-0.562
						c-0.76-3.272-4.374-4.745-6.322-7.648c-2.207-3.289-3.362-7.122-3.862-11.025c-0.009-0.066-0.017-0.133-0.025-0.199
						C656.79,422.543,657.089,422.675,657.401,422.781z"/>
				</g>
				<g>
					<path style="fill:#292949;" d="M643.429,404.223c-0.127,4.029,2.918,10.573,6.662,12.215c0.727,0.319,1.533,0.507,2.384,0.597
						c0.787,2.184,2.105,4.299,4.029,5.351c0.286,0.156,0.584,0.289,0.897,0.395c0.382-1.565-0.352-3.158-0.699-4.732
						c-0.088-0.398-0.104-0.808-0.08-1.224c2.795-0.483,5.615-1.521,7.669-2.418c4.275-1.866,12.602-3.854,17.041-1.65
						c3.51,1.743,2.432,7.301,2.256,10.816c-0.045,0.904-0.115,1.824,0.093,2.702c0.215,0.905,0.777,1.516,1.128,2.277
						c0.122,0.266,0.22,0.548,0.266,0.87c2.874-1.29,4.613-4.531,6.237-7.167c0.812-1.317,1.571-2.694,2.169-4.19
						c2.67-6.685,1.686-15.698-2.414-22.108c-1.183-1.85-2.625-3.511-4.32-4.545c-4.058-2.476-9.708-2.703-14.08-4.4
						c-6.15-2.387-9.276-0.234-15.082,1.63c-2.321,0.746-4.989,1.393-6.218,3.592c-0.679,1.215-0.78,2.713-1.465,3.924
						c-0.883,1.56-2.558,2.374-4.01,3.355C644.207,400.652,643.488,402.337,643.429,404.223z"/>
				</g>
			</g>
			<g>
				<g>
					<polygon style="fill:#2F3789;" points="698.504,448.878 712.563,466.413 724.51,484.026 758.622,510.863 754.759,519.174 
						712.868,503.144 690.399,474.363 					"/>
				</g>
			</g>
		</g>
		<g>
			<g>
				<g>
					<polygon style="fill:#292949;" points="435.798,721.235 435.528,726.666 446.122,732.636 451.822,727.474 446.66,721.773 
						436.067,715.804 					"/>
					<polygon style="fill:#2F3789;" points="426.861,556.438 426.043,572.933 444.493,645.501 435.316,719.456 445.983,722.145 
						475.416,633.255 475.897,606.521 468.441,551.579 					"/>
				</g>
				<g>
					<polygon style="fill:#2F3789;" points="507.953,554.726 516.289,623.638 513.005,714.022 503.007,715.114 487.725,633.716 
						465.076,553.123 					"/>
					<polygon style="fill:#292949;" points="503.526,719.324 514.928,723.549 519.743,717.552 513.747,712.737 502.935,713.918 
											"/>
				</g>
			</g>
			<g>
				<g>
					<path style="fill:#3B3387;" d="M511.97,543.243c-10.337-20.952-14.493-43.939-19.93-66.549
						c-1.607-6.671-3.275-13.485-6.998-19.248c-4.275-6.618-10.169-9.576-16.694-10.706c-8.305-1.438-17.632,0.087-25.943,0.798
						c-5,15.721-8.292,6.812-14.168,22.227c-1.218,3.195-4.641,30.858-5.924,34.029v0c0,0-13.49,42.521-9.083,76.123
						c0.044,0.333,0.081,0.657,0.12,0.983c0.877,0.148,1.717,0.299,2.503,0.457c11.719,2.35,23.671,3.606,35.627,3.428
						c10.606-0.158,21.21-1.463,31.506-4.03c14.093-3.514,30.838-2.12,42.347-11.434C521.94,562.447,515.362,550.119,511.97,543.243
						z"/>
				</g>
				<g>
					<polygon style="fill:#CC937A;" points="517.828,385.95 517.372,374.129 512.312,374.103 510.832,382.267 508.444,381.145 
						510.066,391.212 515.323,391.949 					"/>
					<polygon style="fill:#3B3387;" points="469.478,445.953 499.646,423.104 510.066,391.212 517.089,391.643 520.834,428.556 
						488.711,474.363 					"/>
				</g>
				<g>
					<path style="fill:#CC937A;" d="M435.755,420.383c4.217-13.331,23.524-18.213,28.233-2.849c1.415,4.617,2.296,9.523,1.44,14.276
						c-0.856,4.753-3.692,9.34-8.086,11.342c-0.025,0.011-0.05,0.021-0.075,0.032c0.189,1.228,0.378,2.456,0.567,3.684
						c0.041,0.264,0.076,0.555-0.07,0.779c-0.166,0.255-0.501,0.325-0.801,0.374c-1.466,0.239-2.931,0.478-4.397,0.717
						c-0.726,0.118-1.483,0.235-2.187,0.02c-1.541-0.471-2.204-2.301-2.293-3.909c-0.021-0.384-0.023-0.774-0.022-1.163
						C439.334,440.825,432.998,429.098,435.755,420.383z"/>
					<g>
						<path style="fill:#292949;" d="M462.398,398.472c3.581-0.191,6.263,3.518,9.35,5.625c2.569,1.753,5.604,2.44,8.296,3.946
							c2.692,1.506,5.208,4.355,4.96,7.6c2.987-1.212,6.215-2.439,9.346-1.522c3.132,0.917,5.732,5.006,4.163,8.025
							c-1.405,2.703-5.134,3.018-6.617,5.669c-2.345,4.194,2.229,11.486-1.607,14.052c-0.922,0.617-2.103,0.675-3.012,1.314
							c-1.129,0.793-1.61,2.294-2.205,3.613c-2.693,5.977-9.302,9.421-15.374,8.013c-3.654-2.154-6.352-6.144-7.317-10.511
							c-1.163-5.263,1.739-6.787,2.654-11.537c1-5.191-0.14-10.898-3.053-15.28c-1.896-2.851-4.751-5.425-7.967-6.042
							c-1.308-0.251-0.997,0.889-2.384-0.272c-0.596-0.499-1.308-2.238-1.414-3.05C454.04,405.595,457.687,398.722,462.398,398.472z
							"/>
						<path style="fill:#292949;" d="M424.367,401.446c-1.87,0.334-3.84,0.073-5.648,0.669c-2.715,0.896-2.813,3.616-3.774,5.896
							c-1.063,2.524-2.582,5.904-4.49,7.766c-1.375,1.341-3.185,2.008-4.798,2.991s-3.155,2.513-3.316,4.544
							c-0.152,1.924,0.977,3.773,0.984,5.71c-0.041,2.883-0.675,4.301-0.07,7.309c0.312,1.552,0.67,3.199,1.705,4.335
							c1.364,1.498,3.493,1.673,5.389,1.538c1.897-0.135,3.875-0.47,5.658,0.324c3.866,1.721,2.738,5.689,3.48,9.175
							c1.129,5.304,6.817,8.876,11.559,7.477c4.021-1.186,6.69-5.472,6.935-9.928c0.123-2.231-0.566-4.387-0.419-6.618
							c0.142-2.152,1.633-5.009-0.151-6.897c-0.435-0.46-1.021-0.736-1.402-1.249c-0.308-0.415-0.451-0.945-0.521-1.468
							c-0.246-1.813,0.328-3.71,1.502-4.969c0.844-0.905,1.988-1.516,2.56-2.65c0.655-1.299,0.388-2.916,0.44-4.416
							c0.126-3.625,2.432-6.972,5.566-8.079c2.065-0.729,3.899-1.102,5.761-2.333c0.283-0.187,4.547-3.291,4.578-2.53
							c-0.053-1.324-0.708-2.541-1.382-3.664c-1.108-1.845-2.361-3.659-4.054-4.862c-5.474-3.889-6.49,3.848-11.042,2.386
							c-1.098-0.353-1.845-1.461-2.796-2.17c-1.797-1.34-4.178-1.147-6.21-0.464C428.381,399.952,426.473,401.069,424.367,401.446z"
							/>
					</g>
				</g>
			</g>
			<polygon style="fill:#3B3387;" points="442.406,447.539 412.345,478.416 426.043,501.015 			"/>
		</g>
		<g>
			<g>
				<g>
					<rect x="296.623" y="477.501" style="fill:#EED5D5;" width="457.418" height="104.097"/>
				</g>
			</g>
			<g>
				<path style="fill:#292949;" d="M444.513,500.016c3.402-0.716,8.773-1.253,14.234-1.253c7.789,0,12.802,1.343,16.561,4.387
					c3.133,2.328,5.014,5.908,5.014,10.653c0,5.819-3.85,10.922-10.206,13.249v0.179c5.729,1.432,12.444,6.177,12.444,15.129
					c0,5.192-2.059,9.131-5.103,12.086c-4.208,3.849-11.012,5.64-20.859,5.64c-5.372,0-9.49-0.358-12.086-0.716V500.016z
					 M452.301,524.724h7.072c8.236,0,13.07-4.297,13.07-10.116c0-7.072-5.371-9.848-13.249-9.848c-3.581,0-5.64,0.269-6.894,0.537
					V524.724z M452.301,553.64c1.522,0.269,3.76,0.358,6.535,0.358c8.057,0,15.488-2.954,15.488-11.728
					c0-8.236-7.073-11.638-15.577-11.638h-6.446V553.64z"/>
				<path style="fill:#292949;" d="M493.032,499.21h7.789v53.803h25.783v6.535h-33.571V499.21z"/>
				<path style="fill:#292949;" d="M583.359,528.753c0,20.769-12.622,31.781-28.021,31.781c-15.935,0-27.126-12.354-27.126-30.617
					c0-19.158,11.907-31.691,28.021-31.691C572.706,498.225,583.359,510.848,583.359,528.753z M536.538,529.737
					c0,12.891,6.983,24.44,19.248,24.44c12.354,0,19.337-11.37,19.337-25.067c0-11.996-6.267-24.529-19.247-24.529
					C542.984,504.581,536.538,516.488,536.538,529.737z"/>
				<path style="fill:#292949;" d="M639.398,556.863c-3.491,1.253-10.384,3.312-18.531,3.312c-9.131,0-16.651-2.328-22.56-7.967
					c-5.192-5.013-8.416-13.07-8.416-22.47c0.09-17.994,12.444-31.154,32.676-31.154c6.983,0,12.444,1.522,15.04,2.775l-1.88,6.356
					c-3.223-1.432-7.251-2.596-13.339-2.596c-14.682,0-24.261,9.131-24.261,24.261c0,15.309,9.221,24.35,23.276,24.35
					c5.103,0,8.594-0.716,10.385-1.611v-17.994h-12.265v-6.267h19.874V556.863z"/>
			</g>
			<rect x="296.623" y="477.501" style="fill:#D67086;" width="91.59" height="104.097"/>
		</g>
		<g>
			<g id="XMLID_205_">
				<circle id="XMLID_220_" style="fill:#3B3387;" cx="274.105" cy="600.174" r="97.337"/>
				<path id="XMLID_206_" style="fill:#FFFFFF;" d="M344.759,570.324c-3.862-9.132-9.391-17.332-16.432-24.373
					c-7.041-7.041-15.241-12.569-24.373-16.432c-9.456-4-19.499-6.028-29.849-6.028c-10.35,0-20.393,2.028-29.849,6.028
					c-9.132,3.862-17.332,9.391-24.373,16.432c-7.041,7.041-12.569,15.241-16.432,24.373c-3.999,9.456-6.027,19.499-6.027,29.849
					c0,10.35,2.028,20.393,6.027,29.849c3.863,9.132,9.391,17.332,16.432,24.373c7.041,7.041,15.241,12.57,24.373,16.432
					c9.456,4,19.499,6.028,29.849,6.028c10.35,0,20.393-2.028,29.849-6.028c9.132-3.862,17.332-9.391,24.373-16.432
					c7.041-7.041,12.57-15.241,16.432-24.373c4-9.456,6.028-19.499,6.028-29.849C350.787,589.823,348.759,579.781,344.759,570.324z
					 M236.835,597.81c0-6.004,0.687-11.882,2.038-17.582h31.374v36.474h-31.126C237.603,610.495,236.835,604.175,236.835,597.81z
					 M293.361,547.393c5.538,6.476,9.947,13.529,13.104,20.963c0.582,1.371,1.116,2.757,1.613,4.155h-30.115v-39.337
					C281.578,535.768,287.465,540.5,293.361,547.393z M270.247,533.929v38.582h-29.095c0.478-1.344,0.991-2.677,1.547-3.996
					c3.127-7.411,7.498-14.446,12.991-20.91C261.095,541.244,266.55,536.681,270.247,533.929z M270.247,624.419v41.406
					c-3.671-3.185-8.965-8.274-14.261-15.093c-5.577-7.181-10.016-14.807-13.194-22.668c-0.489-1.209-0.947-2.424-1.376-3.645
					H270.247z M277.964,666.69v-42.271h29.851c-0.412,1.173-0.85,2.341-1.318,3.503c-3.153,7.837-7.559,15.444-13.097,22.611
					C287.563,658.085,281.67,663.565,277.964,666.69z M277.964,616.702v-36.474h32.395c1.352,5.699,2.038,11.577,2.038,17.582
					c0,6.365-0.767,12.685-2.285,18.892H277.964z M318.268,580.228h21.887c1.919,6.386,2.915,13.089,2.915,19.946
					c0,5.644-0.677,11.183-1.985,16.528h-23.047c1.381-6.215,2.077-12.531,2.077-18.892
					C320.114,591.823,319.491,585.949,318.268,580.228z M322.871,551.408c6.181,6.181,11.041,13.329,14.445,21.102h-21.095
					c-0.772-2.424-1.653-4.817-2.652-7.171c-3.466-8.161-8.291-15.887-14.343-22.963c-3.129-3.659-6.253-6.754-9.098-9.302
					C302.424,535.987,313.71,542.248,322.871,551.408z M225.34,551.408c9.499-9.499,21.282-15.881,34.11-18.644
					c-2.937,2.605-6.188,5.804-9.445,9.612c-6.052,7.076-10.877,14.801-14.343,22.963c-1,2.354-1.88,4.747-2.652,7.171h-22.115
					C214.299,564.738,219.159,557.589,225.34,551.408z M208.056,580.228h22.907c-1.223,5.721-1.845,11.596-1.845,17.582
					c0,6.361,0.696,12.677,2.076,18.892h-24.068c-1.309-5.345-1.985-10.884-1.985-16.528
					C205.141,593.317,206.136,586.614,208.056,580.228z M225.34,648.939c-7.076-7.076-12.421-15.421-15.831-24.52h23.772
					c0.699,2.196,1.482,4.376,2.355,6.537c3.445,8.52,8.24,16.766,14.254,24.509c3.928,5.057,7.843,9.22,11.202,12.45
					C247.629,665.358,235.243,658.842,225.34,648.939z M322.871,648.939c-9.586,9.586-21.499,15.998-34.463,18.718
					c3.298-3.192,7.111-7.27,10.933-12.192c6.013-7.743,10.809-15.989,14.253-24.509c0.874-2.161,1.656-4.342,2.356-6.537h22.752
					C335.291,633.518,329.947,641.862,322.871,648.939z"/>
			</g>
		</g>
		<polygon style="fill:#CC937A;" points="407.227,477.501 414.051,474.363 421.817,476.25 417.308,482.47 409.399,482.47 		"/>
		<polygon style="fill:#CC937A;" points="756.817,504.625 759.413,513.744 755.556,523.065 748.671,516.238 750.2,506.373 		"/>
		<g id="XMLID_189_">
			<g id="XMLID_192_">
				<g id="XMLID_202_">
					<g id="XMLID_204_">
						<path style="fill:#292949;" d="M873.628,709.137c1.047-1.153,2.27-1.782,3.651-1.565c1.326,0.209,2.52,1.107,3.067,2.31
							c0.373,0.82,0.452,1.734,0.526,2.629c0.383,4.63,0.348,15.621-5.819,17.204c-2.592,0.664-4.736-1.177-5.427-3.504
							C868.582,722.705,870.126,712.993,873.628,709.137z"/>
					</g>
					<g id="XMLID_203_">
						<path style="fill:#CC937A;" d="M871.434,639.296l0.323,28.238c-0.375,12.543,1.583,25.156,1.208,37.699
							c-0.087,2.884-0.838,5.927-0.111,8.786c0.711,2.797,2.983,3.291,5.315,1.875c3.125-1.897,2.621-6.328,3.142-9.56
							c1.43-8.882,3.107-17.723,4.6-26.595c0.732-4.349-0.777-10.445-0.449-14.846l4.562-23.666L871.434,639.296z"/>
					</g>
				</g>
				<g id="XMLID_201_">
					<polygon style="fill:#474EBB;" points="903.698,593.669 891.408,648.263 888.797,699.819 869.309,699.381 864.01,555.171 
						901.789,555.857 					"/>
				</g>
				<g id="XMLID_196_">
					<g id="XMLID_198_">
						<g id="XMLID_200_">
							<path style="fill:#292949;" d="M845.753,708.111c1.093-1.092,2.339-1.65,3.706-1.351c1.313,0.287,2.464,1.257,2.958,2.493
								c0.337,0.843,0.376,1.763,0.412,2.662c0.183,4.656-0.321,15.654-6.535,16.874c-2.611,0.512-4.67-1.457-5.26-3.827
								C840.144,721.393,842.098,711.763,845.753,708.111z"/>
						</g>
						<g id="XMLID_199_">
							<path style="fill:#CC937A;" d="M856.025,643.26l-1.654,28.192c-0.135,7.835-1.179,15.609-1.99,23.391
								c-0.753,7.228,0.419,14.757-3.359,21.332c-1.185,2.062-3.579,3.434-5.252,0.93c-1.29-1.93-0.524-5.15-0.771-7.34
								c-1.01-8.939-2.268-17.848-3.341-26.78c-0.526-4.379,1.268-10.397,1.148-14.809l-3.441-23.852L856.025,643.26z"/>
						</g>
					</g>
					<g id="XMLID_197_">
						<polygon style="fill:#474EBB;" points="831.364,590.33 829.778,643.326 838.094,696.917 857.918,697.51 857.043,639.511 
							867.533,591.413 871.054,559.929 839.6,556.219 						"/>
					</g>
				</g>
				<g id="XMLID_195_">
					<polygon style="fill:#D67086;" points="856.247,447.761 890.134,446.952 909.781,483.492 902.798,517.718 901.554,558.676 
						853.216,559.336 837.311,556.753 841.534,512.991 839.322,459.589 					"/>
				</g>
				<g id="XMLID_194_">
					<polygon style="fill:#D67086;" points="891.257,449.472 918.766,491.37 914.632,514.711 872.028,544.224 864.01,537.215 
						892.493,501.21 891.388,478.456 					"/>
				</g>
				<g id="XMLID_193_">
					<polygon style="fill:#D67086;" points="858.299,471.417 827.36,495.902 808.519,491.266 774.337,452.421 785.677,447.482 
						821.495,472.972 850.826,450.953 					"/>
				</g>
			</g>
			<g id="XMLID_191_">
				<polygon style="fill:#F7F7F7;" points="880.109,447.567 869.597,462.425 864.654,462.021 856.418,446.952 				"/>
			</g>
			<g id="XMLID_190_">
				<polygon style="fill:#CC937A;" points="871.78,538.996 871.964,544.712 861.875,548.384 856.061,543.979 856.057,537.325 
					861.67,537.012 861.846,535.549 863.685,534.366 				"/>
			</g>
		</g>
		<path style="fill:#CC937A;" d="M867.692,417.74c-2.199-1.939-4.712-2.291-7.515-2.312c-1.324-0.01-1.767,0.333-2.45,0.212
			c-0.307-0.054-0.662-0.201-1.168-0.516c-1.003-0.625-1.898-2.259-2.368-3.591c-2.599,1.644-4.49,4.613-5.011,9.134
			c-0.566,4.915-0.558,10.1,1.127,15.018c1.685,4.918,5.28,9.542,9.944,11.367c0.272,0.106,0.542,0.2,0.81,0.287
			c1.999,0.652,3.896,0.787,5.656,0.505l5.879-2.802c0.292-0.249,0.576-0.511,0.852-0.785
			C875.379,435.891,873.285,422.672,867.692,417.74z"/>
		<path style="fill:#292949;" d="M907.347,500.877c-0.635-0.578-1.283-1.157-1.932-1.741c0.427,1.096,0.853,2.207,1.276,3.335
			c0.423,1.127,0.844,2.271,1.261,3.431c0.269,0.747,0.529,1.507,0.782,2.279c-0.252-0.772-0.513-1.531-0.782-2.279
			c-0.417-1.16-0.838-2.303-1.261-3.431c-0.423-1.127-0.849-2.239-1.276-3.335c-4.695-4.219-9.503-8.675-10.793-14.751
			c-0.619-2.918-0.342-5.821,0.278-8.727c0.997-4.67,2.883-9.349,3.375-14.118c0.844-8.168,0.178-19.911-1.816-27.901
			c-2.132-8.544-6.781-16.275-12.358-23.008c-6.765-8.168-19.342-17.312-28.249-6.616c-0.102,0.123-0.201,0.249-0.298,0.377
			c-0.968-0.484-1.982-0.877-3.026-1.164c-6.153,5.183-7.736,13.525-7.091,21.192c0.647,7.682,4.524,16.385,2.336,24.005
			c-0.209,0.729-0.481,1.456-0.476,2.214c0.006,0.758,0.369,1.576,1.076,1.851c0.429,0.167,0.908,0.11,1.365,0.052
			c3.765-0.486,7.863-1.139,10.417-3.948c0.38-0.418,0.673-0.837,0.905-1.257c-0.268-0.087-0.538-0.181-0.81-0.287
			c-4.664-1.825-8.26-6.449-9.944-11.367c-1.684-4.918-1.693-10.103-1.127-15.018c0.521-4.521,2.412-7.49,5.011-9.134
			c0.47,1.333,1.364,2.967,2.368,3.591c0.505,0.315,0.861,0.462,1.167,0.516c0.683,0.12,1.126-0.222,2.451-0.212
			c2.803,0.021,5.316,0.373,7.515,2.312c5.594,4.932,7.687,18.151,5.755,26.517c5.274-5.261,7.388-15.033,3.917-22.336
			c-0.197-0.415-0.407-0.821-0.628-1.218c0.221,0.397,0.431,0.803,0.628,1.218c3.472,7.303,1.358,17.076-3.917,22.336
			c-0.034,0.145-0.068,0.288-0.104,0.429c-0.239,0.945-0.529,1.827-0.876,2.617c-0.142,0.323-0.293,0.631-0.453,0.924
			c-1.719,3.132-4.376,6.073-4.31,9.645c0.012,0.663,0.124,1.312,0.289,1.951c0.3,1.163,0.783,2.294,1.213,3.421
			c4.573,11.977-0.455,25.498-7.892,35.618c-3.809,5.184-8.839,9.677-11.01,15.732c-0.372,1.039-0.606,2.15-0.711,3.28
			c-0.505,5.456,2.064,11.399,7.318,12.288c1.237,0.209,2.55,0.128,3.688,0.656c3.883,1.804,2.204,8.17,5.078,11.344
			c1.856,2.05,4.997,2.122,7.761,2.043c0.905-0.026,1.861-0.067,2.619-0.562c1.615-1.054,1.46-3.401,1.936-5.27
			c0.863-3.386,4.243-5.609,7.657-6.357c3.413-0.748,6.957-0.351,10.451-0.345c4.366,0.007,8.829-0.64,12.679-2.699
			c1.511-0.808,2.914-1.862,4.109-3.1c-0.148-0.902-0.301-1.796-0.462-2.684c0.161,0.887,0.315,1.782,0.462,2.684
			c1.849-1.916,3.196-4.28,3.642-6.894C917.721,512.009,912.577,505.635,907.347,500.877z M867.569,411.872
			c0.722,0.364,1.434,0.777,2.128,1.236C869.003,412.649,868.291,412.236,867.569,411.872z"/>
		<g>
			<g>
				<path style="fill:#FFFFFF;" d="M837.461,560.12c-1.048,0-2.074-0.414-2.812-1.134l-30.59-29.842l-17.649,23.78
					c-0.824,1.11-2.025,1.746-3.297,1.746c-1.653,0-3.092-1.029-3.754-2.687l-47.065-117.696c-0.617-1.543-0.212-3.131,1.03-4.103
					c0.668-0.717,1.559-1.11,2.529-1.11c0.454,0,0.918,0.087,1.379,0.258l118.829,44.139c1.413,0.525,2.518,1.885,2.751,3.386
					c0.199,1.287-0.276,2.485-1.304,3.288l-23.755,18.557l30.654,29.904c1.512,1.475,1.515,4.027,0.006,5.573l-24.19,24.794
					C839.501,559.713,838.521,560.12,837.461,560.12L837.461,560.12z M803.668,519.256c0.996,0,1.958,0.403,2.708,1.135
					l30.989,30.231l18.684-19.151l-31.05-30.291c-0.783-0.764-1.212-1.925-1.147-3.106c0.059-1.073,0.519-1.999,1.295-2.605
					l21.764-17.001l-103.933-38.606l41.165,102.938l16.148-21.757C801.121,519.924,802.384,519.256,803.668,519.256z"/>
				<g>
					<path style="fill:#FFFFFF;" d="M865.479,527.508l-4.156-4.055l-13.838-13.499l-11.401-11.122l22.369-17.474
						c1.458-1.139,2.16-2.909,1.877-4.736c-0.315-2.034-1.816-3.879-3.735-4.592l-7.302-2.712l-7.302-2.712l-33.224-12.341
						l-30.606-11.369l-20.197-7.502l-20.197-7.502c-0.632-0.235-1.276-0.354-1.914-0.354c-1.365,0-2.617,0.533-3.568,1.51
						c-1.725,1.406-2.284,3.643-1.418,5.81l3.137,7.846l2.647,6.62l18.06,45.161l7.222,18.06l8,20.005l8,20.005
						c0.887,2.219,2.921,3.653,5.181,3.653c1.763,0,3.415-0.863,4.531-2.367l12.246-16.5l4.354-5.867l29.331,28.613
						c1.023,0.998,2.44,1.571,3.886,1.571c1.478,0,2.848-0.571,3.86-1.608l10.185-10.44l14.005-14.354
						c0.989-1.013,1.548-2.361,1.573-3.793C867.11,529.969,866.525,528.528,865.479,527.508z M863.311,533.107
						c-8.063,8.265-16.127,16.529-24.19,24.794c-0.449,0.461-1.053,0.681-1.66,0.681c-0.634,0-1.271-0.24-1.739-0.697
						c-9.895-9.652-19.789-19.305-29.684-28.957c-0.722-0.704-1.444-1.409-2.166-2.113c-6.232,8.397-12.465,16.795-18.697,25.192
						c-0.567,0.764-1.324,1.125-2.063,1.125c-0.955,0-1.88-0.604-2.327-1.72c-5.333-13.336-10.666-26.673-15.999-40.009
						c-8.427-21.074-16.854-42.147-25.282-63.221c-1.928-4.822-3.856-9.644-5.785-14.465c-0.427-1.067-0.05-1.905,0.648-2.393
						c0.359-0.43,0.865-0.711,1.484-0.711c0.262,0,0.544,0.051,0.844,0.162c13.465,5.001,26.93,10.003,40.394,15.004
						c21.277,7.903,42.554,15.807,63.83,23.71c4.868,1.808,9.736,3.617,14.604,5.425c1.497,0.556,2.594,2.805,1.036,4.022
						c-8.381,6.547-16.761,13.093-25.142,19.64c9.253,9.026,18.505,18.052,27.758,27.079c1.385,1.351,2.771,2.703,4.156,4.054
						C864.272,530.626,864.207,532.189,863.311,533.107z"/>
					<path style="fill:#FFFFFF;" d="M826.072,500.08c-0.85-0.829-0.994-2.606,0.021-3.399c7.977-6.232,15.955-12.464,23.932-18.695
						c-12.068-4.482-24.135-8.965-36.203-13.448c-21.277-7.903-42.554-15.806-63.83-23.71c-3.243-1.205-6.486-2.409-9.729-3.614
						c4.7,11.752,9.399,23.504,14.098,35.256c8.427,21.074,16.854,42.148,25.282,63.221c1.364,3.412,2.729,6.823,4.093,10.235
						c5.929-7.989,11.858-15.978,17.787-23.967c0.542-0.729,1.337-1.167,2.144-1.167c0.567,0,1.14,0.216,1.634,0.698
						c9.894,9.653,19.789,19.305,29.683,28.957c0.802,0.782,1.604,1.565,2.406,2.347c6.944-7.117,13.887-14.234,20.831-21.352
						c-9.332-9.104-18.664-18.207-27.995-27.31C828.843,502.783,827.458,501.431,826.072,500.08z M853.876,531.498l-16.538,16.95
						l-0.206-0.201l-29.683-28.957c-1.039-1.014-2.382-1.572-3.781-1.572c-1.769,0-3.493,0.9-4.612,2.409l-10.563,14.233
						l-3.945,5.315l-2.05-5.125l-14.524-36.319l-10.758-26.902l-7.049-17.628l-4.475-11.19l3.229,1.199l63.83,23.71l31.043,11.531
						l-0.69,0.539l-18.905,14.768c-1.115,0.871-1.801,2.231-1.884,3.732c-0.089,1.617,0.512,3.221,1.609,4.29l4.156,4.054l8.6,8.39
						L853.876,531.498z"/>
				</g>
			</g>
			<polygon style="fill:#474EBB;" points="827.783,498.388 854.871,477.228 736.041,433.089 783.107,550.784 803.592,523.183 
				837.432,556.194 849.527,543.797 861.622,531.4 			"/>
		</g>
		<g>
			<g>
				<g>
					<path style="fill:#FFFFFF;" d="M866.096,226.297c-6.664-15.563-22.894-24.341-38.839-21.582
						c-0.029,0.005-0.058,0.004-0.088,0.006c-4.954,1.328-9.311,4.472-11.627,9.922c-0.509,1.197-2.29,0.471-1.778-0.735
						c2.483-5.841,7.019-9.327,12.233-10.914c-3.485-18.831-18.684-33.535-37.066-34.052c-18.09-0.509-34.222,12.413-39.69,30.622
						c1.466,0.542,2.89,1.228,4.249,2.077c5.407,3.375,9.322,8.616,11.86,14.66c0.502,1.195-1.254,2.038-1.754,0.846
						c-0.835-1.989-1.85-3.892-3.043-5.66c-4.429-6.562-11.3-10.925-18.988-11.382c-7.768-0.462-16.569,3.036-22.419,8.486
						c-6.703,6.245-10.921,15.211-11.135,24.676c-0.21,9.29,3.37,18.358,9.754,24.64c5.922,5.827,13.201,8.968,21.168,10.15
						c5.224,0.775,10.469,1.418,15.711,2.057c14.984,1.826,29.987,3.498,44.991,5.149c6.592,0.725,13.184,1.443,19.778,2.155
						c5.416,0.585,11.067,1.657,16.52,1.135c17.834-1.706,32.873-17.307,33.198-36.675
						C869.223,236.507,868.178,231.161,866.096,226.297z"/>
				</g>
			</g>
		</g>
		<polygon style="fill:#CC937A;" points="181.869,553.303 192.726,550.059 191.541,545.359 183.615,545.934 184.086,543.451 
			175.134,547.359 175.706,552.411 		"/>
		<path style="fill:#FFFFFF;" d="M334.458,330.661c-5.719,1.597-10.157,5.523-12.583,10.464l-33.707-10.35
			c0.776-6.426-1.132-12.622-4.879-17.416l24.704-25.417c2.174,1.376,4.653,2.349,7.349,2.794
			c10.745,1.776,20.926-5.482,22.693-16.178c1.768-10.696-5.536-20.843-16.282-22.619c-10.746-1.776-20.926,5.482-22.693,16.178
			c-0.757,4.578,0.15,9.054,2.275,12.818l-25.427,26.16c-2.289-1.248-4.821-2.141-7.537-2.59
			c-12.969-2.143-25.256,6.616-27.389,19.526c-2.133,12.909,6.682,25.156,19.651,27.299c9.898,1.636,19.398-3.08,24.291-11.143
			l34.824,10.694c0.024,2.967,0.857,5.803,2.317,8.256c4.261,8.252,13.858,12.669,23.155,10.073
			c10.645-2.972,16.865-14.011,13.893-24.656C356.142,333.91,345.103,327.69,334.458,330.661z"/>
		<g>
			<g>
				<path style="fill:#FFFFFF;" d="M537.685,347.827c-0.23-5.235,3.828-9.665,9.062-9.894c5.235-0.23,9.664,3.828,9.894,9.062
					c0.23,5.235-3.828,9.665-9.062,9.894C542.345,357.119,537.915,353.061,537.685,347.827z"/>
				<g>
					<path style="fill:#FFFFFF;" d="M545.824,316.892c-11.541,0.507-21.743,7.174-26.892,17.296l9.195,7.899
						c0.078-0.162,0.151-0.328,0.215-0.5c2.828-7.6,9.89-12.74,17.991-13.096c8.101-0.356,15.586,4.146,19.07,11.469
						c0.073,0.153,0.152,0.299,0.236,0.443l8.466-8.673C568.085,322.12,557.351,316.387,545.824,316.892z"/>
					<path style="fill:#FFFFFF;" d="M544.909,296.042c-17.254,0.757-32.844,9.806-42.079,24.315l8.916,7.659
						c0.031-0.05,0.064-0.098,0.094-0.149c7.081-12.052,19.634-19.613,33.578-20.225c13.628-0.598,26.622,5.597,34.76,16.571
						c0.184,0.248,0.388,0.471,0.602,0.681l8.149-8.348C578.46,302.941,562.08,295.288,544.909,296.042z"/>
					<path style="fill:#FFFFFF;" d="M544.018,275.756c-22.651,0.994-43.761,12.665-56.701,31.275l8.849,7.601
						c0.056-0.075,0.112-0.15,0.164-0.229c10.832-16.088,28.849-26.199,48.197-27.049c19.347-0.849,38.181,7.644,50.381,22.72
						c0.051,0.063,0.108,0.119,0.161,0.18l8.146-8.344C588.694,284.526,566.656,274.762,544.018,275.756z"/>
				</g>
			</g>
		</g>
		<g>
			<g>
				<g>
					<g>
						<path style="fill:#FFFFFF;" d="M476.65,64.166l9.309,37.549c0.153,0.618,0.6,1.12,1.194,1.343l36.129,13.555
							c1.497,0.562,1.7,2.602,0.343,3.452l-32.742,20.531c-0.539,0.338-0.877,0.919-0.906,1.556l-1.735,38.668
							c-0.072,1.602-1.944,2.428-3.168,1.398l-29.545-24.861c-0.486-0.409-1.142-0.552-1.754-0.382l-37.201,10.343
							c-1.541,0.428-2.901-1.101-2.301-2.588l14.482-35.895c0.238-0.591,0.172-1.26-0.178-1.791l-21.257-32.275
							c-0.881-1.337,0.151-3.109,1.746-2.998l38.495,2.676c0.633,0.044,1.248-0.227,1.644-0.726l24.064-30.291
							C474.267,62.176,476.265,62.611,476.65,64.166z"/>
					</g>
				</g>
				<g>
					<polygon style="fill:#FFFFFF;" points="412.759,171.344 412.759,171.344 412.766,171.346 					"/>
				</g>
			</g>
		</g>
		<g>
			<path style="fill:#FFFFFF;" d="M134.592,167.262c-7.632,1.29-16.004,7.745-16.595,14.801c-3.897-5.91-16.381-6.972-23.698-4.445
				c-19.308,6.669-20.289,30.72-8.096,43.612c6.563,6.938,14.833,12.358,23.509,16.906c7.265,3.808,25.381,11.194,25.418,11.143
				c0.056,0.026,12.424-15.144,16.978-21.97c5.438-8.152,10.104-16.875,12.543-26.113
				C169.183,184.035,154.732,163.858,134.592,167.262z"/>
		</g>
	</g>
</g>
</svg>
