<?xml version="1.0" encoding="utf-8"?>
<!-- Generator: Adobe Illustrator 27.5.0, SVG Export Plug-In . SVG Version: 6.00 Build 0)  -->
<svg version="1.1" id="Layer_1" xmlns="http://www.w3.org/2000/svg" xmlns:xlink="http://www.w3.org/1999/xlink" x="0px" y="0px"
	 viewBox="0 0 2372 1898" style="enable-background:new 0 0 2372 1898;" xml:space="preserve">
<g>
	<rect style="fill:#FFFFFF;" width="2371.708" height="1897.367"/>
	<g>
		<path style="fill:#F4F4F4;" d="M279.79,681.174c5.309,4.589,35.997-17.721,27.031-6.292c-31.619,16.979,1.503,4.809,9.859-3.375
			c5.362-17.57,12.688,18.284,22.173,2.491c-0.065,7.275,9.527,3.848,8.833-0.391c14.793-0.151,32.14,9.431,47.287,8.858
			c14.89,7.112-6.404,7.663-2.691,10.245c8.473,3.471,26.34,0.959,34.288-0.238c4.497-1.76,11.391,14.18,14.375,14.11
			c0.454-11.272-10.608-26.977,9.36-26.609c35.237,31.681,58.384-18.696,56.106,10.557c10.852,10.722,4.718,2.935,6.591-5.075
			c18.412-1.874-0.85-16.173,12.372-17.818c-28.999-3.082-9.952-35.594-11.506-58.066c-3.355-4.456,34.073-15.801,22.511-5.242
			c-0.196,9.147-9.554,18.588-17.41,15.322c3.039,12.265-2.028,12.28,8.24,22.415c9.48,10.903-3.291,23.996,13.756,22.173
			c-0.794,20.12,3.685,16.962,10.036,1.052c13.289,3.619,0.21,15.183,4.773,21.375c5.339,4.333,17.497,7.576,11.424-3.146
			c8.124,1.095,1.046-8.634,4.765-10.486c7.69-4.476,3.283-2.04,1.221-10.485c-2.313-10.245,26.404-0.229,23.631,7.742
			c-9.965,7.345,8.077,29.843-16.705,29.917c-6.341,0.845-12.937-3.575-15.676,1.932c17.089,10.28-22.609,6.289-27.109,5.726
			c43.212,12.608,22.286,24.75-9.179,23.397c26.864,5.48-16.355,16.348-13.927,46.688c19.5,2.363,16.107,24.58,37.746,19.831
			c10.826,10.418,32.102,12.2,39.756,19.673c-1.271,8.028-0.918,20.679,12.258,20.434c4.996,7.132,5.187,14.026,10.771,4.409
			c-7.782-37.881,2.412-20.734,10.477-45.557c3.061-11.056-11.688-17.88-6.577-26.856c4.344-6.813-1.072-4.985-1.036-12.741
			c0.402-3.366,0.984-13.108-2.258-15.166c6.31,0.406,26.405-3.098,32.991,3.152c7.329,9.663,22.386,4.344,17.932,15.962
			c-4.251,15.664,16.388,24.031,23.808,12.019c7.319-23.293,14.286-6.237,22.774,11.043c6.875,5.531-3.675,10.777,2.16,14.274
			c5.944,2.127,5.909,7.176,6.327,10.569c18.596-0.581,20.032,6.439,4.579,15.238c8.787,1.24,35.384-12.342,20.009,17.665
			c-31.939,18.113-69.708,8.247-89.444,46.53c9.685-5.284,24.608-23.03,36.618-24.118c11.395,3.811,1.51,13.66-5.02,12.014
			c7.512,6.098,4.069,7.56,10.641,16.457c12.412,8.64,17.427,5.865,21.222-5.73c11.022,1.572-9.277,22.922-17.92,21.851
			c-10.359,6.169-20.979,13.098-7.709-2.985c4.57-0.823,14.89-4.451,4.587-5.076c-4.314-7.653-18.221,11.664-27.098,9.512
			c-15.351,12.311-5.888,29.076-29.623,32.581c-3.215,3.34-4.151,23.307-7.531,10.968c-3.675-5.392-1.971-4.272-1.641,1.692
			c5.831,17.61-6.411,18.92-3.211-0.405c-5.23-6.791-4.878,29.515-0.862,29.838c0.619,2.801-6.816,2.368-1.384,5.652
			c-5.452,2.538-10.453,7.771-15.668,11.368c-34.039,9.148,7.425,64.057-15.581,55.885c-6.294-31.03-16.514-33.833-46.953-31.691
			c-10.461,2.462,3.947,4.407,2.009,8.14c-2.308,0.595-5.281-2.58-9.358-0.24c-44.082-25.102-62.08,61.431-20.262,71.126
			c18.572-1.722,16.385-4.442,24.24-19.847c34.138-7.79,8.268,11.492,10.045,26.624c-14.764,13.615,14.894,6.161,25.029,10.403
			c14.113,10.797-10.464,29.28,7.97,37.252c8.764,10.793,29.059-5.762,34.631,8.872c2.082-12.334,12.69-20.395,26.503-22.903
			c51.398-3.834,94.474,33.351,130.924,59.825c14.033,27.718,56.762,27.564,80.367,46.134c28.435,1.708-0.335,40.658-11.781,45.8
			c-0.735,9.64-4.184,33.867-3.635,44.36c-16.802,5.084-37.058,26.368-50.235,39.016c-5.372,22.458-35.325,64.622-54.657,62.435
			c10.375,21.388-22.415,11.185-25.866,24.342c-20.171,1.091,4.108,24.616-6.465,20.208c-11.603-8.564-26.522,25.497-20.208,41.408
			c-21.674,19.519-29.878,60.971,14.56,63.864c-33.693,17.395-82.787-20.405-69.627-66.288
			c2.339-64.929,35.504-131.679,27.877-193.696c-24.66-22.812-40.516-37.423-55.236-71.29c-21.113-22.957,0.657-46.178,14.542-65.96
			c3.706-13.265-5.82-44.456-18.532-23.061c-22.919-6.851-25.246-17.499-42.42-34.363c-30.019-16.873-58.462-25.32-90.087-35.629
			c-27.096-20.626-44.319-68.839-74.107-90.486c-0.992,10.544,44.466,70.021,18,48.229c2.949-8.711-22.048-18.758-19.921-22.906
			c13.84,8.927-14.542-42.394-26.838-41.291c-27.368-23.66-25.261-71.175-21.986-104.835c-8.588-14.472-6.658-17.715,8.303-10.644
			c-2.23-13.336-22.917-17.455-32.038-23.859c-11.77-19.243-21.579-34.304-40.702-44.195
			c-13.521-30.282-48.864-27.644-72.556-40.637c-9.742-1.376-19.294,27.132-31.019,21.279c1.129-4.597,1.314-13.201,9.012-15.483
			c4.865-2.423,4.674-2.583,2.778-2.423c-6.892,0.14,8.237-5.822,5.709-7.095c-21.645,2.65-30.832,39.383-50.222,49.191
			c-8.356,7.377-65.362,33.067-35.679,13.06c10.333-3.127,46.598-24.508,34.646-32.578c-19.821,6.054-64.311-13.778-38.464-34.991
			c16.897-7.187,24.518-5.165,15.417-21.136c-29.293,19.559-43.551-17.784-9.001-7.419c30.982-9.976-11.65-11.443-12.638-26.931
			c16.67-20.381,54.744-48.309,78.28-28.226C206.11,675.58,258.922,695.779,279.79,681.174z M696.232,494.093
			c-11.39,29.41-88.611,24.743-27.182,58.384c48.743,1.166,92.216,13.886,83.297,71.778c4.432,5.091,4.464,15.073,6.925,20.8
			c13.9-15.317,35.79,10.864,5.895,23.865c-10.664,29.779,27.366,102.056,62.68,87.743c6.601-7.166,8.94-50.029,20.271-55.003
			c25.144-6.374,26.942-10.435,40.352-29.202c22.964-12.185,76.515-16.046,58.549-51.758c-1.661-19.265,17.849-33.68,23.039-47.092
			c-3.673-15.596-16.033-42.291,2.59-50.65c-31.924-23.751,17.354-52.6,36.194-64.188c6.378-15.058-57.199,0.245-66.159,4.845
			c1.046-4.861,2.177-19.526,11.621-22.749c-24.352-9.227-85.499-25.743-107.39-2.737c-25.601-1.792-69.918-5.774-29.793,21.123
			C792.889,432.841,655.461,480.47,696.232,494.093z M439.568,627.42c3.152,24.851-4.465-0.817-12.934,2.678
			c-12.477,5.095-6.629,1.211-12.708-3.326c-12.706,1.182-14.385,10.752-13.846-4.409c-17.177,1.368-36.616,20.271-16.746,29.35
			c-16.831,4.797-2.934,8.477,6.006,6.993c59.08,2.897,3.989,3.185-9.702,10.53c18.846,13.847,45.313,21.271,65.7,0.975
			c5.521,4.354,32.035,14.85,28.988-0.107c0.456-2.146-4.637,0.427-6.473,1.508c-5.99-8.764,25.273-1.385,7.962-12.577
			C459.864,660.371,444.688,596.51,439.568,627.42z M343.731,618.283c2.276,8.049-10.094,20.214-10.509,26.983
			c8.97,8.429,27.335,15.055,31.982-1.083c-3.384-10.782,37.181-21.647,23.562-30.422
			C381.096,609.159,330.306,598.761,343.731,618.283z M494.06,669.783c-15.883,5.923,17.127,13.877,21.243,5.059
			C512.271,671.722,495.732,654.253,494.06,669.783z M472.231,619.463c-7.796,4.413,16.107,20.451,23.095,19.146
			c18.69-5.075,11.046-22.355-2.538-18.934c26.234-15.291-11.893-17.502-19.163-7.32c1.737,2.862,15.924,1.535,8.542,10.115
			C476.188,629.618,477.739,615.905,472.231,619.463z M450.074,609.573c-15.493,0.586,8.5,15.203,8.535,7.099
			C459.882,611.187,458.039,608.811,450.074,609.573z M366.702,567.955c-7.892,6.16-23.979,23.452-5.305,16.997
			c5.255,1.462,22.274-22.924,18.59-9.683C397.607,579.033,400.811,538.324,366.702,567.955z M401.917,575.272
			c-24.713-1.091-21.504,35.463-0.111,14.95c4.912-5.883-0.564,9.969,8.203,2.567c23.54-6.039-8.559,8.242-13.055,7.531
			c9.837,8.481,45.426-7.872,55.438-14.074c7-18.698-8.491-9.312-8.091-3.229c-2.285-2.646-8.518-13.196-11.433-16.998
			c-17.076,3.747,0.376,12.738,0.355,19.459C420.655,591.735,412.185,574.804,401.917,575.272z M380.56,580.868
			c0.731-1.248-8.763,5.589-10.21,7.789C371.929,594.654,379.095,587.419,380.56,580.868z M398.81,566.615
			c-6.294,3.03,9.844,3.168,6.806-0.594C404.818,564.407,400.714,565.755,398.81,566.615z M418.492,546.195
			c-6.365,1.7-13.884,3.081-9.235,10.636c1.072,5.148,29.999-4.731,11.439-6.658C420.072,548.68,442.713,543.185,418.492,546.195z
			 M396.617,549.576c-5.843,1.675,10.884,4.919,8.71,2.474C404.818,550.854,401.749,547.2,396.617,549.576z M411.503,538.984
			c-14.628,10.244,9.508,0.357,16.522,1.82C440.035,532.803,424.449,532.589,411.503,538.984z M450.646,548.714
			c-3.581,3.143,8.394,11.752,9.296,7.958C460.52,554.526,453.483,546.758,450.646,548.714z M463.985,565.595
			c-8.24-1.996-6.798,8.336,0.053,8.924C473.473,575.739,470.502,566.525,463.985,565.595z M481.018,570.651
			c-2.743-3.64-10.18-3.753-7.28,0.808c2.221-0.066,6.959,4.27,0.465,4.515c-13.054-0.595-1.953,5.113,5.307,4.356
			c20.59-7.269-9.356,13.836,13.402,7.522c13.458,1.269,1.092-14.096,8.884-8.227c1.38-15.967-13.453-21.153-20.153-13.328
			C488.659,571.562,488.444,578.609,481.018,570.651z M459.943,585.969c-1.853,0.749-2.555,2.86-2.658,4.249
			C458.335,593.851,473.423,584.067,459.943,585.969z M514.443,578.66c-17.086,6.454,0.814,16.701,9.115,11.339
			C525.81,587.477,522.521,574.244,514.443,578.66z M536.721,559.9c-32.528-5.08-44.468-1.818-6.919,9.427
			c-4.301,34.618,55.167,26.192,76.73,12.994c6.362-27.152-39.974-1.267-53.093-5.729
			C529.441,568.737,562.321,565.691,536.721,559.9z M463.293,529.9c11.262,2.18-11.465,6.081-2.772,6.931
			c8.877-4.811,32.334,15.52,31.357,3.063C485.101,516.495,428.211,522.382,463.293,529.9z M513.179,490.385
			c-18.599,15.201,20.743,10.677-3.82,14.919c-19.732,13.938,38.668,5.034,26.329,12.899c-34.099,7.14,9.941,19.453,19.741,13.386
			c4.18-5.672,4.864-12.477,13.422-14.031C577.757,517.436,524.307,463.932,513.179,490.385z M504.331,537.561
			c-12.64,8.312,13.338,4.088,14.037-1.542C513.866,533.155,482.192,513.279,504.331,537.561z M716.203,453.67
			c-38.634-13.467-180.417-3.669-108.757,18.272c-11.813-6.574-63.13-8.641-70.894,5.595c29.286,23.551,48.597,11.698,83.593,0.216
			c-19.248,27.027-79.142,4.837-33.018,44.502c-9.449-9.663-45.503,10.868-12.016,16.342c11.617,0.12,19.716-4.732,1.852,4.526
			c-2.36-2.024-26.502-7.686-17.546,1.719c12.109,7.31-29.631,16.282,4.15,16.993c4.923,0.2,26.205-0.343,30.714-3.878
			c12.532,1.007-2.731,11.33,17.095,2.154c17.737-12.616-10.69-11.464,3.693-28.59c1.567-0.589,33.045-13.737,16.618-22.594
			c-0.149-0.813,22.699-4.311,26.329-11.395c3.232-4.087,4.388-5.594-3.453-4.726c-8.528,2.706,65.874-29.736,36.239-24.514
			C642.993,468.528,711.275,464.427,716.203,453.67z M586.897,602.903c-36.476-15.221-60.811,54.294-17.326,52.467
			c35.618,1.181,43.167-20.214,67.667,16.139c41.357,26.18-4.401,40.944-21.712,45.792c-0.3,15.035,27.24-1.781,31.406,4.736
			c4.672,7.504,20.549,7.122,6.236,11.186c-5.361-0.437,45.686,18.573,33.477,8.816c-20.724-16.172-9.675-16.937,4.624-4.948
			c20.426-9.157-16.735-26.646-17.325-36.774c3.502-11.589,12.322-9.767,20.101,2.148c11.76,22.753,34.15-23.116,0.005-23.214
			c-55.056-20.685,12.415-4.176-18.022-32.051C620.881,594.616,606.806,641.312,586.897,602.903z M597.282,602.903
			c-9.054,8.954,22.616,14.684,26.092,7.952C625.004,610.426,606.29,601.822,597.282,602.903z M571.364,709.558
			c-10.223,30.458-3.6,24.943,20.603,20.643C618.466,738.715,573.646,704.171,571.364,709.558z M614.938,1086.371
			c-2.732-22.289-65.246-4.369-15.522-7.864c-9.762,1.822,20.716,12.352,11.644,21.176
			C632.741,1115.12,625.865,1099.474,614.938,1086.371z M631.712,1109.99c12.829,18.123-19.568,0.02-7.159,8.774
			c15.213,10.849,6.766,1.837,25.799,5.017C684.175,1129.191,629.6,1101.366,631.712,1109.99z M606.213,1112.228
			c-3.373-3.731-7.583-4.272-7.621-1.096C596.962,1115.632,610.183,1117.019,606.213,1112.228z M671.259,1128.407
			c-3.662-1.257-4.416,1.5-1.979,3.799C675.613,1135.907,688.106,1133.363,671.259,1128.407z M629.123,678.357
			c-12.724,0.565,2.503,20.596,4.927,14.035C635.701,688.361,637.346,674.885,629.123,678.357z M590.247,738.058
			c-13.201-0.565-10.213,12.666-0.472,6.449C594.747,742.04,598.211,736.771,590.247,738.058z M605.483,744.293
			c-1.249,0.38-1.615,3.227,0,5.802C609.337,754.056,617.312,739.095,605.483,744.293z M525.582,545.814
			c-25.068,2.329-5.171,4.037,8.322,3.548C553.072,546.189,545.774,540.04,525.582,545.814z M482.289,507.858
			c-7.066,2.193-5.315,3.654,2.992,7.31C500.123,523.17,492.664,498.916,482.289,507.858z M975.838,687.828
			c-24.195-0.102-23.904,34.877-33.651,4.029c-17.784-11.224-3.534,5.99-17.172,9.437c1.7,0.71,21.918,0.804,10.636,10.453
			C966.505,742.044,1050.215,678.992,975.838,687.828z M1560.403,1161.566c-0.877,5.402-4.771,24.601,6.349,20.268
			C1576.473,1179.671,1564.568,1159.178,1560.403,1161.566z M1558.287,1157.576c1.81,4.794,2.155-2.32-0.069,0.213
			 M1807.597,1329.209c-38.214,10.681-60.261,30.161-38.783,68.392c13.061,15.773-11.068,43.898,18.864,38.05
			c33.17-9.909,75.822-49.932,105.301-13.708c26.725-21.304,0.354,11.144,14.383,0.005c4.953,27.263,40.996,33.572,60.791,22.247
			c17.915-8.642,32.323-54.369,28.406-76.607c0.386-13.174-11.605-9.82-14.384-18.704c-0.099-11.321-4.417-2.561-8.657-8.71
			c-0.039-12.439-21.074-8.7-18.023-20.16c2.188-10.634-7.233-7.402-5.703-16.4c1.178-11.511-6.899-3.763-10.276-12.369
			c-16.751-36.893-6.806,15.704-17.661,25.812c-62.506-16.428,2.179-36.309-39.724-36.563c-14.188-2.44-4.609,6.914-10.148,6.568
			c-13.79-5.326-14.03,8.648-17.093,15.153C1835.747,1290.91,1816.034,1307.527,1807.597,1329.209z M1653.521,1183.844
			c-7.724,1.428,9.914,11.468,12.008,13.428c11.724,16.47,16.701,32.412,32.089,46.67c26.447,26.11,18.885-14.81,3.803-24.62
			C1700.089,1209.95,1666.729,1187.29,1653.521,1183.844z M1720.714,1253.192c-30.733,5.277,54.327,21.113,41.687,10.11
			C1749.16,1254.281,1733.69,1257.743,1720.714,1253.192z M1779.371,1265.016c-19.101,6.564,27.626,2.152,10.843-0.223
			C1788.78,1264.432,1779.938,1266.94,1779.371,1265.016z M1800.851,1264.582c-7.328,7.075,23.604-0.574,28.748-0.427
			C1819.66,1262.159,1811.17,1267.146,1800.851,1264.582z M1823.944,1269.851c-12.343,15.295,15.077-3.763,17.862-6.122
			C1833.106,1263.684,1833.143,1264.856,1823.944,1269.851z M1799.808,1271.549c-4.167-3.513-10.293,0.223-4.508,2.299
			C1803.369,1278.129,1805.842,1275.246,1799.808,1271.549z M1772.215,1181.903c-0.008,10.762-29.358,14.66-24.246,25.589
			c-5.17,2.5-9.95-9.196-13.152,0.001c-0.566,7.728-3.069,14.734,5.189,16.773c-0.053,15.532,13.953,8.231,23.668,11.718
			c19.399,12.797,13.865-24.95,26.441-25.484c3.739-5.896-5.851-4.201-4.276-13.651c-2.627-6.202,3.493-8.817,7.044-13.226
			C1789.018,1177.85,1778.665,1167.097,1772.215,1181.903z M2113.387,1410.168c1.983,6.076,19.655,18.592,8.438,32.154
			c13.224,5.475-4.86,14.04,9.591,10.106c22.193-34.54,20.298-17.552-0.237-26.775
			C2120.691,1423.18,2126.427,1412.456,2113.387,1410.168z M2114.087,1449.204c-8.566,14.582-29.575,26.707-38.902,40.855
			c20.043,12.766,25.672-10.42,37.864-21.619C2130.525,1452.339,2119.086,1457.537,2114.087,1449.204z M2086.86,1490.502
			c-4.058-2.147-4.85,1.851-5.504,5.954C2079.254,1502.021,2093.268,1491.924,2086.86,1490.502z M1949.558,1462.315
			c-14.711,18.184,23.434,24.094,21.131-2.258C1966.44,1461.011,1955.752,1469.816,1949.558,1462.315z M1892.065,1231.469
			c-8.722,1.304-8.099-21.183-21.479-12.903c-14.244,2.955,4.675,5.179,5.078,6.669c14.385,2.113-12.159,4.975,16.404,13.975
			c18.246,4.489,24.569,14.324,12.466,21.291c9.101-1.223,29.265,13.441,36.252-0.649c4.88-10.252,44.404,22.229,38.105,11.185
			C1958.881,1251.244,1921.084,1203.911,1892.065,1231.469z M1831.314,1209.967c-7.624,3.218-35.51-10.09-30.639,10.182
			c0.222,6.977-16.048,21.863-3.16,24.773c2.749,3.542-6.435,18.402,5.033,14.863c3.602-0.807,0.435-1.066,0.435-4.012
			c3.06-11.297-0.007-27.419,8.771-6.693c2.275,7.239,8.895,0.216,10.347-1.212c-7.743-1.812-1.642-3.673-6.037-11.382
			c-7.748-8.585,3.294-4.734,5.609-11.522c17.53-6.827-16.873,4.589-16.969,0.679c-4.504-14.064,7.769-10.897,20.571-10.856
			C1838.965,1216.359,1846.889,1193.621,1831.314,1209.967z M1850.73,1198.25c-8.022,1.005-9.389,18.749-1.5,21.823
			C1851.635,1213.879,1848.915,1205.481,1850.73,1198.25z M1837.451,1233.548c-8.37-4.338-11.048,6.885-2.225,6.229
			C1840.877,1239.776,1847.258,1237.286,1837.451,1233.548z M1848.004,1231.751c-6.355,8.916,1.837,9.153,8.906,4.146
			c7.049-0.255,18.822,7.503,7.151-3.036C1858.108,1229.117,1855.42,1229.398,1848.004,1231.751z M1742.368,1094.975
			c-18.74-3.253-7.062,20.577,0.992,4.142C1745.853,1096.596,1745.603,1092.333,1742.368,1094.975z M1804.894,1102.444
			c-4.703-0.641-4.652,13.369-3.464,16.027c-4.004-5.959-6.23,5.439-1.274,7.417c17.748,17.011,10.618,0.753,23.317,12.576
			c-1.416-5.318-2.884-10.354-10.731-9.46C1797.327,1124.816,1826.42,1100.794,1804.894,1102.444z M1832.365,1160.226
			c-1.604,0.697-9.36,3.408-10.857,6.168c2.968-10.422-15.699,4.892-9.443,7.338c9.53-13.548,9.333-1.706,14.143,5.767
			c11.36,2.128,1.905-5.227,7.329-8.509c0.507-1.254,2.494,8.24,3.253,4.03C1841.438,1170.068,1831.017,1147.936,1832.365,1160.226z
			 M1819.078,1147.062c-7.713-20.897-26.297,6.295-4.364,0.713c-0.703,1.038-9.027,7.197-3.82,9.574
			C1816.893,1168.72,1830.352,1129.603,1819.078,1147.062z M1825.619,1139.181c8.165,14.546-3.815-0.208,2.208,14.147
			c2.036,4.002,0.551-3.032,0.951-4.31C1830.822,1147.704,1837.394,1137.865,1825.619,1139.181z M1795.749,1146.635
			c-1.698,5.233-8.829,13.831-12.694,17.502C1787.41,1163.723,1803.64,1150.745,1795.749,1146.635z M1986.92,1234.69
			c1.271,8.297-9.184,9.584-15.19,8.177C1957.207,1254.435,2011.145,1243.133,1986.92,1234.69z M2001.919,1241.146
			c1.702,3.811,5.691,8.267,9.99,8.604C2015.394,1250.792,1998.944,1232.279,2001.919,1241.146z M1806.912,1060.347
			c-7.401,4.705-10.736,4.355-7.79,10.324C1805.1,1097.059,1817.024,1056.555,1806.912,1060.347z M1933.63,828.374
			c-3.154,15.171-3.53,27.388-3.114,44.192c-0.811,12.789-7.263,31.72,6.339,28.706c8.279,8.154-6.375-16.834-2.76-19.028
			c0.817-21.042,17.53,6.58,10.269-9.134C1936.716,863.964,1939.534,821.408,1933.63,828.374z M1930.166,910.741
			c0.999,10.637-4.93,14.69-9.817,19.452c-7.71,3.011-2.125,16.78,4.849,9.577c-15.093-10.986,8.827-6.541,13.401-3.118
			c-2.281-8.208,13.616-5.753,14.206-10.217c-1.25-11.545-4.784-3.656-12.599-7.415
			C1937.196,918.482,1932.205,905.531,1930.166,910.741z M1919.826,946.001c-8.227,54.844-21.477,14.523-25.713,39.194
			c-1.059,7.446-6.427-1.482-13.597,2.334c-7.097,1.237-7.777,9.144-15.587,9.513c-3.684,3.172-14.495,19.982-3.806,10.815
			c-3.071,14.2,4.715,19.138,10.049,0.478c1.046-6.739-9.445-3.38-4.257-8.23c5.164-1.912,19.516-5.506,24.686-4.838
			c1.639,5.616-0.079,9.339,7.439,4.517c1.583-6.538-3.106-4.892,7.281-5.394c10.112-6.262,9.765,1.646,18.789-4.274
			c-3.704-12.706,3.169-22.245,5.114-35.245C1925.241,944.337,1931.49,939.094,1919.826,946.001z M1887.505,994.463
			c-14.355-3.473-20.988,18.26-7.956,13.84c4.545-7.769,4.673-3.208,10.805-7.22
			C1894.623,995.857,1890.767,991.364,1887.505,994.463z M2211.08,755.638c-20.257-3.249,4.114,8.028,9.869,7.094
			C2230.896,761.267,2215.836,757.7,2211.08,755.638z M2148.54,669.487c-15.836,12.372,22.64,7.158,25.529,5.397
			C2173.507,667.036,2152.964,671.765,2148.54,669.487z M1953.433,596.827c6.747,19.944,56.015,0.742,14.645,1.777
			C1968.332,594.677,1954.217,590.611,1953.433,596.827z M1919.483,607.875c-5.238,5.133,12.777,19.667,21.218,18.147
			C1938.215,620.443,1926.432,605.637,1919.483,607.875z M1950.395,592.076c-11.909-8.435-19.019-13.33-30.226-8.063
			c-21.062-18.898-29.461,20.34-5.969,16.122C1927.582,590.477,1940.571,608.116,1950.395,592.076z M1650.514,476.893
			c-54.261,16.179,7.128,42.002,29.908,36.775c-5.654-4.139,3.054-12.368-1.962-15.166c-8.367-4.177-9.011,1.72-5.196-3.333
			c-4.893,2.027-17.037-8.178-6.707-10.221C1669.194,483.516,1647.669,468.758,1650.514,476.893z M1693.928,509.465
			c-12.627,7.013-25.939,27.947-1.385,17.42c28.005,9.427,21.357-11.352,1.159-13.33
			C1703.564,510.525,1702.02,509.267,1693.928,509.465z M1426.992,456.457c-6.045,2.169-3.928,3.229-7.858,6.35
			C1413.962,473.928,1467.148,450.322,1426.992,456.457z M1440.377,471.624c-11.164,6.298,4.811,12.54,10.971,6.228
			C1458.085,473.097,1451.377,464.677,1440.377,471.624z M1408.833,470.063c-8.672,3.72,12.654,6.763,16.012,3.221
			C1434.522,469.125,1410.548,468.478,1408.833,470.063z M1355.315,476.588c7.041-1.694,29.343,0.097,9.868,5.012
			c-8.315,0.881,0.784,2.175,6.67,1.932c6.629-6.147,10.006-8.368,20.956-9.513C1399.693,463.374,1323.131,475.628,1355.315,476.588
			z M1399.469,478.126c-4.95,0-16.881,2.741-6.838,3.708C1406.038,484.736,1414.061,479.453,1399.469,478.126z M1434.469,480.227
			c-13.06-6.653-27.267,6.764-7.803,4.357c2.938-0.49,2.77-1.373,0.867-2.104C1425.623,481.758,1438.62,481.598,1434.469,480.227z
			 M1464.08,471.517c-22.495,6.797,25.139,6.008,11.602-7.346C1470.457,464.215,1470.914,470.198,1464.08,471.517z M1040.001,780.84
			c-12.676,22.334,7.916-2.475,8.453,5.9c-0.275,5.551-5.453,4.744-3.823,10.181c1.636,5.443,0.411,4.979,9.266,6.943
			c5.722,0.165,6.067,12.462,5.176,14.817c-8.358-1.911-12.61-4.845-6.949,6.245c1.637,3.698-1.09,5.784-6.259,8.213
			c-9.771,7.498,18.63-0.157,15.516,5.092c-17.178,10.734-37.762,21.817,5.871,10.762c15.857-1.291,35.138-9.411,20.42-7.983
			c-5.394-0.366,11.976-19.819-6.271-19.553c-7.91-11.691,20.725,3.667-2.722-12.616c-9.74-8.147-12.888-19.332-22.874-16.777
			c12.023-12.934,17.174-21.401-3.949-19.549C1068.399,755.52,1035.752,763.033,1040.001,780.84z M1026.242,798.542
			c-17.269,8.642,6.239,4.502-8.984,10.65c-18.622,14.218,5.809,5.276-4.896,17.122c-17.358,24.402,26.928,6.924,23.421-4.86
			C1033.99,810.935,1044.516,797.331,1026.242,798.542z M1138.106,919.984c0.65,4.706-7.727,8.93-0.12,13.224
			C1139.782,937.779,1142.074,910.181,1138.106,919.984z M1136.377,937.831c-10.794,2.943-6.374,22.313,2.419,16.243
			C1143.682,950.724,1146.956,931.23,1136.377,937.831z M1226.891,985.349c-14.234,2.065,16.537,6.578,17.489,4.035
			C1247.553,987.038,1232.637,984.073,1226.891,985.349z M1276.069,988.091c-7.111-1.53-5.185,7.103,2.086,5.817
			C1288.667,990.997,1290.802,985.625,1276.069,988.091z M1099.191,948.042c-5.779,0.739-6.228,2.695-1.729,3.876
			C1103.64,953.757,1107.852,946.309,1099.191,948.042z M749.4,842.779c-3.908,9.538-43.039,37.452-9.356,35.802
			c15.074,2.908,13.856,5.169,17.328,4.202c6.507-1.915,2.612,14.472,9.001,1.454C768.622,851.023,739.479,872.7,749.4,842.779z
			 M288.431,832.462c-1.734,4.755,15.717,26.986,10.158,11.177C298.3,835.459,295.428,827.838,288.431,832.462z M313.717,858.7
			c0.264,4.513,31.231,23.788,25.974,10.75C335.617,864.972,315.01,859.32,313.717,858.7z M172.936,805.205
			c-8.941-5.878-16.725,14.057-6.501,6.459C168.293,808.494,183.618,804.708,172.936,805.205z M171.467,799.646
			c-7.688,5.395,5.828-0.123,6.753,0C178.22,799.646,174.413,797.865,171.467,799.646z M91.535,786.817
			c-15.074,0.314,6.362,6.057,6.237,2.02C95.34,785.634,98.018,783.409,91.535,786.817z M1369.72,1312.321
			c-5.309,11.497-36.908,8.043-21.713,26.886c5.541,9.889-4.608,8.816-7.167,20.427c-1.126,9.192,6.721,30.318,15.941,24.945
			c20.56-3.43,16.044-64.945,26.327-68.813C1382.162,1301.284,1373.836,1284.18,1369.72,1312.321z M1376.192,650.855
			c-13.658,4.191-2.629,10.554,6.746,4.596C1390.217,652.873,1382.155,649.484,1376.192,650.855z M1489.328,540.971
			c-8.56,2.851-50.291,16.516-66.039,27.304c-27.124,20.329-9.533,19.333-24.25,37.207c-24.443,18.111,19.157,37.358,26.803,29.04
			C1378.986,579.606,1503.945,557.618,1489.328,540.971z M1432.071,637.63c-7.916-1.119,12.406,17.275,8.077,6.883
			C1438.642,638.491,1434.378,637.31,1432.071,637.63z M1507.921,593.872c-10.165-6.082-5.937,5.614,2.315,6.236
			C1514.736,600.969,1511.157,595.38,1507.921,593.872z M712.968,864.502c-5.131-2.573-10.15-4.622-13.5-4.622
			C692.058,861.289,718.398,872.769,712.968,864.502z M700.74,886.118c-8.189,10.22,17.802,8.561,6.292,5.533
			C703.686,891.059,700.511,889.666,700.74,886.118z M2213.563,737.951c-13.703-1.811-12.341,0.963-13.693,11.293
			c-12.849-4.704-30.504-15.08-38.435-20.329c-14.593,23.445-27.628,1.321-8.308,32.1c-38.719,1.535-46.665,25.126-84.877,17.731
			c-39.478,20.063-12.25,19.004-13.5,23.062c-10.824,37.513-40.76,84.544-43.481,19.359c4.021-36.727,18.557-16.866,42.944-45.811
			c15.262-10.937,0.82-16.483,14.739-18.058c-8.457,0.465-11.013-3.168-18.032,5.652c-14.746,14.607-2.107-7.121-10.545-4.032
			c-6.785,1.724-45.387,12.048-34.292,25.319c-14.868,9.519-18.29-13.652-37.41-2.426c-32.103-15.792-47.966,16.572-74.478,33.722
			c-6.402,6.116-7.445,5.796-2.253,6.771c10.76-0.3,3.586,13.243,15.594,11.763c31.533-25.583,13.041,50.06-0.702,68.225
			c-15.379,35.135-40.598,13.925-49.876,38.858c-24.655,17.327,5.444,32.494-7.611,53.567
			c-17.692,15.283-8.993-18.719-10.747-24.368c-8.549-2.127-8.823-7.359-7.956-13.22c-7.027-7.067-18.011,2.419-18.537-10.484
			c-10.652,1.962-40.669,15.789-18.194,26.768c4.201,1.266,18.116-5.3,16.985,1.292c1.478-0.194-22.613,16.578-14.383,19.201
			c12.792,9.089,3.66,22.727,11.257,34.356c2.16,37.58-45.174,47.694-64.423,62.557c-2.485-16.462-33.567,0.228-28.233,13.08
			c26.682,13.853,18.248,58.518-4.859,57.25c3.292-16.336-24.886-17.964-25.462-25.805c-15.9,10.056-8.698,33.487,6.937,44.835
			c25.516,33.116-2.83,36.666-8.482,0.646c-24.51-10.536-6.041-62.014-24.338-66.778c-9.65,12.107-15.039,4.562-11.245-6.686
			c-3.143-6.343-16.978-34.039-24.425-27.019c-20.689,0.251-38.42,29.161-57.009,40.981c-10.059,6.159-4.093,54.907-23.446,44.669
			c-24.743-24.497-23.932-95.986-29.316-81.623c-5.88,12.177-29.071-2.359-9.594-9.016c-10.557,2.717-20.509-5.881-23.025-15.756
			c-30.822,8.312-62.895-2.688-88.972-16.779c-6.288-7.95-12.637-26.94-23.498-10.854c1.893,5.827,22.24,45.707,18.48,22.309
			c0.144,17.738,17.404,19.715,28.284,7.258c5.179-8.447,3.648-4.879,5.196,3.171c6.638,4.801,14.497,8.003,19.221,14.47
			c3.637,1.905-7.794,20.005-9.52,11.448c-2.823,0.661,0.658,13.881-6.181,13.595c-25.587,15.025-48.893,29.065-78.396,36.288
			c-8.328-7.911-4.756-26.92-14.956-36.77c-14.52-21.901-28.497-46.446-39.486-71.662c-0.864-2.743-3.117,4.459-4.898,5.86
			c-3.627,4.533-5.779-12.81-7.912-9.456c-3.403,13.922,14.1,27.87,16.565,42.684c10.082,17.904,12.567,31.411,22.178,48.971
			c5.798,10.851,24.911,13.182,21.639,28.875c32.673,23.768,79.513-39.837,30.718,42.527
			c-78.842,84.578-39.72,42.081-47.384,130.476c-30.932,16.862-29.862,19.134-27.543,52.735
			c-27.179,14.85-9.05,19.984-30.497,44.944c-12.681,19.635-56.184,37.984-71.921,17.693c-1.501-26.09-23.82-41.048-22.813-68.876
			c-8.997-19.823-20.121-36.677-11.83-58.978c13.615-21.353-0.144-55.131-14.719-72.734c-11.826-8.405,2.004-27.773-3.231-37.796
			c-3.868-11.644-17.518-0.194-23.44-9.569c-8.049-8.734-3.237-8.985-18.933-7.852c-19.261,7.8-36.723,5.369-54.915,11.078
			c-31.247-1.233-46.343-41.28-62.462-62.95c14.111-14.99-1.014-34.499,3.06-49.455c11.853-16.823,20.117-42.21,40.646-50.324
			c1.955-11.174,1.519-28.23,16.578-31.506c5.979-2.057,4.996-22.877,12.748-13.388c16.216,9.071,36.718-10.72,53.861-12.196
			c11.279,5.493,10.551-3.51,21.998-0.003c8.066,1.546,14.523-7.022,20.205,0.963c-0.074,1.276-5.769,6.153-2.136,9.035
			c7.94,8.264-12.246,11.821-0.232,17.315c96.001,52.629,27.408,0.953,74.184,8.694c12.703,10.308,34.263,13.512,48.903,8.449
			c23.859,15.421,28.481-25.759,29.267-41.072c0.178-3.403-5.367,1.265-7.329-1.617c-5.516-1.623-1.931,6.793-9.534,5.224
			c-17.756-10.963-12.033,1.529-26.786-3.169c-11.833-2.103-12.119-21.991-13.326-25.219c-11.766-4.377,13.239-8.271,17.133-9.998
			c7.27-1.654-7.545-3.432,1.099-4.52c13.354,2.496,12.693-9.221,26.16-7.638c23.493,13.961,70.065,12.32,29.671-19.083
			c-15.082-6.838-16.171-9.196-2.774-18.171c2.942-1.073-3.401-3.334-4.276-4.56c-1.31-1.644,9.733-1.156,8.488-4.905
			c-2.012-6.156-38.115,5.935-22.573,13.552c12.05,4-3.861,8.02-9.403,10.543c-5.194,1.262-0.83-7.243-6.357-5.697
			c-5.141-2.518-2.643-1.108,1.332-3.823c4.053-2.175,6.964-7.802-0.578-6.288c-2.943-0.148-11.961-3.683-4.272-2.849
			c8.385-5.089-13.917-2.063-14.487,5.91c-0.969,14.88-21.718,29.393-4.911,42.575c-3.818,0.918-11.622,1.928-13.91,7.268
			c-1.819-5.317-26.518-12.328-25.053,0.879c2.875,3.851,1.26,14.479,7.357,17.176c-1.82,1.842-2.646,20.322-8.483,12.581
			c-8.642-6.025-4.599-19.719-14.547-28.947c-3.102-12.655-0.151-20.907-16.987-28.628c-12.353-1.005-24.234-40.277-27.365-11.285
			c4.578,6.24,9.23,19.932,18.458,23.788c10.649,1.173-2.736,1.494,7.877,6.849c4.84,1.247,15.069,14.854,7.795,9.915
			c-4.681-4.92-4.757-2.651-6.059,0.73c3.292,12.668-6.113,14.498-11.431,19.833c2.832,18.801-5.023,3.144-14.722,1.288
			c1.023-4.11,30.179-3.657,18.871-18.794c-15.85-13.539-28.927-28.202-42.161-42.492c-13.036,7.731-15.156,9.658-29.63,9.995
			c-4.722,17.744-12.694,12.659-22.85,31.781c-2.109,15.315-5.116,24.845-23.557,26.456c-22.428,8.335-6.878-9.071-32.046-1.935
			c3.687-15.744,1.24-38.452,2.607-55.811c7.294-14.641,62.641,22.707,45.188-27.898c-10.301-10.548-36.091-28.034-8.468-20.967
			c14.97-4.359-5.428-11.891,12.632-6.447c10.37-0.549,1.742-6.151,13.174-8.551c-3.259-12.648,10.988-7.922,15.594-13.218
			c-2.237-17.472,7.065-15.904,17.134-20.964c27.538,3.397-10.292-37.811,13.853-42.429c21.454-7.87-27.849,55.862,34.997,37.091
			c57.194,5.898,20.292-50.41,47.437-28.228c7.822,5.639,9.507-12.963,7.625-12.896c-2.198,2.609-12.047-10.418-9.346-9.837
			c12.758-0.153,66.562-7.643,26.498-9.19c-53.751,13.438-35.463-30.8-12.816-49.517c-31.882-29.501-15.135,13.156-35.162,20.808
			c-21.171,10.983-3.258,27.181-1.891,35.955c-17.061,1.857-28.151,65.7-37.086,27.582c-26.804-55.145-4.277-11.423-41.561-13.054
			c-13.262-19.061,0.316-45.141,20.276-54.028c19.533-14.282,25.647-39.395,42.592-59.359c4.062-10.945,68.859-50.521,55.941-32.427
			c-14.538,19.262,4.193-3.918,12.295-2.247c3.026-2.024,24.097,6.926,15.776,9.346c-10.747,3.478-16.169,1.441-1.918,8.078
			c38.128-8.359-13.547,6.373,31.348,10.472c64.51,21.321,22.466,49.038-17.309,23.866c16.402,7.492,6.475,31.094,18.002,39.688
			c9.324,4.234,11.986,2.992,15.586-0.492c-0.63-3.367-11.081-6.987-4.844-10.806c16.505,5.494,11.307-7.554,24.592-15.331
			c25.526,1.631,17.344-9.125,11.942-21.606c4.158-10.577,19.753,0.267,10.235,1.62c-7.282-0.644-2.265,10.808,4.322,10.161
			c24.723-17.543,47.468-18.42,76.036-22.412c7.618-1.291-0.521,2.737,2.936,3.857c4.168,2.763,16.891-3.023,13.523-7.249
			c-20.719-26.751,44.442,6.002,44.67,16.771c3.508-28.754-28.538-36.507,5.207-71.12c32.598-5.96-1.334,41.979,21.997,71.921
			c1.955,19.827-50.397,9.242-11.457,20.966c27.224-1.327,10.659-60.556,38.811-16.771c-8.153-33.172-39.104-12.703-17.137-70.318
			c-1.662,13.742,3.859,28.715,12.989,19.361c-7.103-2.102-9.182-4.036-2.085-7.904c8.465-7.945,51.957,18.97,29.096-5.651
			c-27.796-20.087,6.827-18.934,29.964-18.861c11.974-14.444-17.056-31.926,31.693-31.444c5.964-4.803,59.31,1.349,54.205-15.816
			c1.542-8.527,23.423-7.795,23.388-4.84c-2.256,0.808-9.01,4.189,1.551,6.458c21.361,1.816-18.779,7.138,12.122,9.509
			c10.735,0,4.331-0.966,2.596-4.515c3-6.786,34.579,4.953,34.983,16.292c0.032,15.696-39.032,21.851-44.319,38.546
			c-3.95,2.909,38.624-8.225,48.138-1.617c45.389-1.348,5.521,9.734,30.133,10.814c20.509,3.949,57.016-24.858,59.752,9.186
			c-10.405,14.581,8.238,36.369,17.491,14.35c12.158,3.986,27.132,7.149,42.434,6.133c8.545-8.894-5.929-26.078,24.425-14.518
			c47.151,13.016,34.915,27.852,87.113,30.961c23.686,17.08-10.352,19.14,43.647,21.124c13.844,0.173,9.177-1.602,13.334,1.3
			c34.905,26.269-9.509-18.153,42.072-0.801C2142.829,690.11,2232.219,740.329,2213.563,737.951z M1405.514,901.87
			c10.931-9.269-1.779,6.176-7.161-17.481c-6.844,2.326-20.02-3.039-24.772,7.263c-4.315,10.216-20.103,12.046-9.176,19.991
			c1.26,8.565,8.736,22.83,17.845,23.877c-6.589,7.165-16.804,36.121,1.897,37.414c25.655,11.154,25.114-8.694,15.069-26.769
			c-0.102-8.489,14.759-4.077,3.622-15.971c-2.752-1.613-3.971,5.33-3.971,5.33c-2.184,2.861,1.088-15.679-1.893-13.233
			c-4.342,1.013-15.914-19.903-7.634-15.806C1384.573,894.419,1398.509,901.299,1405.514,901.87z M759.374,653.368
			c-2.21,6.35,8.857,5.751,11.748,3.89C775.618,648.949,762.667,643.917,759.374,653.368z M1615.536,475.545
			c-13.073-2.719-2.022,9.637,5.359,6.452c8.316-4.039,6.587-4.359,12.306-6.78C1642.531,470.701,1618.952,472.999,1615.536,475.545
			z"/>
	</g>
	<g>
		<g>
			<path style="fill:#333333;" d="M1246.14,1254.243c-1.139,0-2.162-0.785-2.412-1.943c-0.297-1.332,0.547-2.644,1.885-2.94
				c10.615-2.335,21.205-5.25,31.486-8.667c1.287-0.476,2.696,0.271,3.12,1.564c0.431,1.293-0.27,2.689-1.563,3.12
				c-10.442,3.474-21.199,6.433-31.988,8.808C1246.494,1254.224,1246.314,1254.243,1246.14,1254.243z M1052.621,1235.779
				c-0.328,0-0.662-0.065-0.978-0.206c-82.325-35.585-146.186-104.586-175.215-189.317c-0.444-1.287,0.244-2.696,1.538-3.133
				c1.287-0.457,2.696,0.245,3.133,1.538c28.578,83.412,91.454,151.345,172.5,186.383c1.254,0.54,1.833,1.994,1.286,3.243
				C1054.487,1235.219,1053.574,1235.779,1052.621,1235.779z M1390.711,1179.374c-0.669,0-1.338-0.27-1.827-0.81
				c-0.92-1.004-0.843-2.567,0.167-3.487c65.27-59.37,102.701-143.998,102.701-232.172c0-36.775-6.305-72.784-18.734-107.044
				c-0.463-1.28,0.199-2.702,1.48-3.165c1.261-0.476,2.696,0.193,3.165,1.48c12.629,34.8,19.031,71.381,19.031,108.729
				c0,89.563-38.023,175.517-104.321,235.826C1391.901,1179.162,1391.303,1179.374,1390.711,1179.374z M862.932,918.116
				c-0.071,0-0.142,0-0.213-0.007c-1.357-0.122-2.367-1.312-2.252-2.676c0.939-10.97,2.465-22.023,4.536-32.857
				c0.258-1.339,1.512-2.278,2.889-1.962c1.338,0.258,2.22,1.551,1.963,2.889c-2.033,10.667-3.539,21.553-4.459,32.355
				C865.279,917.144,864.205,918.116,862.932,918.116z M961.148,715.204c-0.656,0-1.312-0.258-1.795-0.779
				c-0.94-0.991-0.894-2.554,0.103-3.487c59.345-55.934,136.96-86.732,218.539-86.732c8.197,0,16.489,0.315,24.635,0.94
				c1.364,0.103,2.38,1.292,2.278,2.65c-0.109,1.358-1.184,2.38-2.651,2.278c-8.022-0.617-16.187-0.926-24.261-0.926
				c-80.318,0-156.724,30.322-215.155,85.381C962.363,714.979,961.759,715.204,961.148,715.204z M1356.053,684.001
				c-0.483,0-0.965-0.141-1.397-0.431c-8.968-6.125-18.355-11.838-27.896-16.985c-1.203-0.65-1.654-2.149-1.004-3.345
				c0.65-1.21,2.156-1.647,3.345-1.004c9.696,5.224,19.231,11.028,28.347,17.255c1.126,0.766,1.415,2.303,0.643,3.436
				C1357.616,683.621,1356.838,684.001,1356.053,684.001z"/>
		</g>
		<g>
			<path style="fill:#333333;" d="M1211.109,1421.512c-1.287,0-2.374-0.997-2.464-2.297c-0.097-1.364,0.933-2.541,2.29-2.638
				c142.081-9.966,270.954-82.107,353.576-197.926l2.303,1.036l2.007,1.434c-0.007,0.02-0.309,0.432-0.322,0.444
				c-83.445,116.984-213.662,189.87-357.217,199.94C1211.225,1421.512,1211.167,1421.512,1211.109,1421.512z M1004.743,1390.218
				c-0.302,0-0.605-0.051-0.901-0.167c-16.329-6.375-32.509-13.749-48.085-21.913c-1.21-0.63-1.679-2.123-1.042-3.333
				c0.63-1.203,2.136-1.673,3.333-1.042c15.415,8.074,31.429,15.37,47.596,21.681c1.268,0.495,1.898,1.93,1.403,3.204
				C1006.66,1389.62,1005.727,1390.218,1004.743,1390.218z M743.69,1143.481c-0.94,0-1.834-0.534-2.252-1.447
				c-28.276-62.149-43.222-131.144-43.222-199.528c0-72.449,16.779-145.041,48.523-209.931c0.598-1.229,2.065-1.756,3.307-1.133
				c1.223,0.598,1.731,2.079,1.133,3.307c-31.416,64.214-48.021,136.059-48.021,207.756c0,67.683,14.791,135.969,42.784,197.482
				c0.559,1.242,0.013,2.708-1.229,3.275C744.378,1143.41,744.031,1143.481,743.69,1143.481z M1654.846,925.026
				c-1.319,0-2.413-1.036-2.47-2.361c-0.747-17.352-2.477-34.864-5.128-52.055c-0.206-1.351,0.72-2.612,2.065-2.824
				c1.409-0.238,2.612,0.727,2.824,2.065c2.677,17.377,4.42,35.07,5.179,52.595c0.058,1.364-1.004,2.515-2.361,2.58
				C1654.916,925.026,1654.878,925.026,1654.846,925.026z M1573.691,678.294c-0.791,0-1.57-0.38-2.046-1.087
				c-31.686-46.966-71.356-87.62-117.91-120.824c-68.056-48.561-147.762-78.369-230.512-86.205
				c-1.357-0.129-2.355-1.332-2.225-2.689c0.128-1.358,1.299-2.4,2.689-2.226c83.618,7.914,164.161,38.036,232.918,87.092
				c47.036,33.558,87.118,74.631,119.132,122.086c0.766,1.133,0.469,2.67-0.663,3.429
				C1574.65,678.159,1574.167,678.294,1573.691,678.294z M879.247,573.007c-0.72,0-1.441-0.316-1.924-0.926
				c-0.855-1.062-0.688-2.619,0.38-3.468c13.684-10.995,28.147-21.347,42.989-30.766c1.139-0.746,2.677-0.399,3.41,0.759
				c0.734,1.152,0.393,2.683-0.759,3.41c-14.695,9.329-29.009,19.571-42.552,30.444C880.34,572.827,879.794,573.007,879.247,573.007
				z"/>
		</g>
		<g>
			<path style="fill:#333333;" d="M1232.558,1587.314c-1.273,0-2.355-0.971-2.464-2.264c-0.109-1.358,0.901-2.554,2.258-2.67
				c23.444-1.962,46.991-5.256,69.998-9.779c1.364-0.296,2.638,0.618,2.901,1.949c0.264,1.339-0.611,2.638-1.949,2.902
				c-23.18,4.555-46.914,7.875-70.539,9.856C1232.693,1587.314,1232.623,1587.314,1232.558,1587.314z M826.858,1485.559
				c-0.463,0-0.933-0.128-1.351-0.399c-162.843-106.072-268.599-277.182-290.152-469.459c-0.148-1.358,0.823-2.58,2.181-2.735
				c1.383-0.103,2.586,0.83,2.734,2.181c21.379,190.81,126.332,360.607,287.939,465.869c1.138,0.746,1.466,2.277,0.72,3.422
				C828.453,1485.166,827.662,1485.559,826.858,1485.559z M1560.496,1463.71c-0.753,0-1.505-0.347-1.988-1.003
				c-0.81-1.094-0.579-2.644,0.521-3.455c154.787-114.359,249.46-290.049,259.747-482.03l0.058-1.216
				c0.071-1.364,1.299-2.419,2.587-2.354c1.364,0.064,2.418,1.222,2.355,2.586l-0.071,1.274
				c-10.358,193.435-105.763,370.477-261.741,485.717C1561.525,1463.556,1561.01,1463.71,1560.496,1463.71z M568.006,737.825
				c-0.264,0-0.534-0.039-0.798-0.129c-1.287-0.443-1.982-1.846-1.544-3.139c7.598-22.364,16.56-44.605,26.622-66.099
				c0.592-1.235,2.059-1.744,3.287-1.19c1.235,0.579,1.77,2.052,1.19,3.287c-9.992,21.334-18.883,43.402-26.417,65.598
				C569.993,737.175,569.035,737.825,568.006,737.825z M1706.173,576.565c-0.779,0-1.544-0.366-2.026-1.055
				c-13.44-19.224-28.115-37.94-43.62-55.619c-0.901-1.023-0.798-2.586,0.231-3.487c1.023-0.901,2.587-0.804,3.487,0.232
				c15.621,17.815,30.412,36.672,43.955,56.044c0.779,1.119,0.509,2.657-0.611,3.442
				C1707.158,576.423,1706.662,576.565,1706.173,576.565z M885.423,371.363c-0.894,0-1.762-0.489-2.201-1.345
				c-0.617-1.216-0.141-2.702,1.075-3.326c90.207-46.084,191.57-70.442,293.138-70.442c11.69,0,23.515,0.316,35.147,0.946
				c77.603,4.156,152.754,21.836,223.364,52.556c1.254,0.54,1.828,2.001,1.28,3.249c-0.547,1.254-1.988,1.84-3.249,1.28
				c-70.069-30.483-144.648-48.027-221.666-52.158c-11.542-0.617-23.277-0.933-34.877-0.933c-100.79,0-201.38,24.171-290.886,69.902
				C886.189,371.28,885.803,371.363,885.423,371.363z"/>
		</g>
	</g>
	<g>
		<g>
			<path style="fill:#333333;" d="M879.357,814.166c-43.327,0-78.451,35.124-78.451,78.451l0,0
				c0,43.327,35.124,78.451,78.451,78.451c43.328,0,78.451-35.124,78.451-78.451l0,0
				C957.808,849.29,922.685,814.166,879.357,814.166z"/>
			<path style="fill:#FFFFFF;" d="M917.245,927.018h-75.776c2.061-19.094,18.279-34.01,37.915-34.01
				C899.02,893.008,915.238,907.925,917.245,927.018z"/>
			<path style="fill:#FFFFFF;" d="M879.357,847.415c11.164,0,20.287,9.067,20.287,20.287c0,11.107-9.01,20.173-20.117,20.287
				c-0.057,0-0.113,0-0.17,0c-11.22,0-20.287-9.123-20.287-20.287C859.07,856.481,868.137,847.415,879.357,847.415z"/>
		</g>
	</g>
	<g>
		<g>
			<path style="fill:#333333;" d="M1428.363,684.31c-37.424,0-67.762,30.338-67.762,67.762v0.001
				c0,37.424,30.338,67.762,67.762,67.762c37.424,0,67.762-30.338,67.762-67.762v-0.001
				C1496.126,714.648,1465.787,684.31,1428.363,684.31z"/>
			<path style="fill:#FFFFFF;" d="M1461.089,781.786h-65.452c1.78-16.492,15.789-29.376,32.749-29.376
				S1459.356,765.294,1461.089,781.786z"/>
			<path style="fill:#FFFFFF;" d="M1428.363,713.028c9.643,0,17.523,7.831,17.523,17.523c0,9.593-7.782,17.425-17.376,17.522
				c-0.049,0-0.098,0-0.147,0c-9.691,0-17.522-7.88-17.522-17.522C1410.841,720.859,1418.672,713.028,1428.363,713.028z"/>
		</g>
	</g>
	<g>
		<g>
			<path style="fill:#333333;" d="M1621.572,1030.499c-29.903,0-54.145,24.242-54.145,54.146l0,0
				c0,29.904,24.242,54.145,54.145,54.145c29.905,0,54.146-24.241,54.146-54.145l0,0
				C1675.718,1054.741,1651.476,1030.499,1621.572,1030.499z"/>
			<path style="fill:#FFFFFF;" d="M1647.722,1108.388h-52.3c1.422-13.178,12.616-23.473,26.169-23.473
				S1646.337,1095.209,1647.722,1108.388z"/>
			<path style="fill:#FFFFFF;" d="M1621.573,1053.446c7.705,0,14.002,6.257,14.002,14.002c0,7.666-6.219,13.923-13.884,14.002
				c-0.04,0-0.078,0-0.117,0c-7.744,0-14.002-6.297-14.002-14.002C1607.571,1059.704,1613.828,1053.446,1621.573,1053.446z"/>
		</g>
	</g>
	<g>
		<g>
			<path style="fill:#333333;" d="M1435.642,1438.444c-43.934,0-79.55,35.616-79.55,79.55v0.001c0,43.934,35.616,79.55,79.55,79.55
				c43.935,0,79.55-35.616,79.55-79.55v-0.001C1515.192,1474.06,1479.576,1438.444,1435.642,1438.444z"/>
			<path style="fill:#FFFFFF;" d="M1474.061,1552.877h-76.837c2.09-19.361,18.536-34.487,38.446-34.487
				C1455.581,1518.39,1472.026,1533.516,1474.061,1552.877z"/>
			<path style="fill:#FFFFFF;" d="M1435.642,1472.157c11.32,0,20.571,9.194,20.571,20.571c0,11.262-9.136,20.456-20.399,20.571
				c-0.057,0-0.115,0-0.173,0c-11.377,0-20.571-9.251-20.571-20.571C1415.071,1481.351,1424.265,1472.157,1435.642,1472.157z"/>
		</g>
	</g>
	<g>
		<g>
			<path style="fill:#333333;" d="M534.967,818.265c-29.904,0-54.146,24.242-54.146,54.146v0.001
				c0,29.904,24.242,54.146,54.146,54.146c29.904,0,54.146-24.242,54.146-54.146v-0.001
				C589.113,842.507,564.871,818.265,534.967,818.265z"/>
			<path style="fill:#FFFFFF;" d="M561.117,896.154h-52.3c1.423-13.178,12.616-23.473,26.169-23.473
				C548.538,872.681,559.732,882.976,561.117,896.154z"/>
			<path style="fill:#FFFFFF;" d="M534.967,841.213c7.705,0,14.002,6.257,14.002,14.002c0,7.666-6.219,13.923-13.884,14.002
				c-0.039,0-0.078,0-0.117,0c-7.744,0-14.002-6.297-14.002-14.002C520.966,847.47,527.223,841.213,534.967,841.213z"/>
		</g>
	</g>
	<g>
		<g>
			<path style="fill:#333333;" d="M1554.227,367.299c-29.903,0-54.146,24.242-54.146,54.146l0,0
				c0,29.904,24.242,54.146,54.146,54.146c29.904,0,54.146-24.242,54.146-54.146l0,0
				C1608.373,391.541,1584.131,367.299,1554.227,367.299z"/>
			<path style="fill:#FFFFFF;" d="M1580.377,445.187h-52.299c1.422-13.177,12.616-23.473,26.169-23.473
				C1567.799,421.715,1578.992,432.01,1580.377,445.187z"/>
			<path style="fill:#FFFFFF;" d="M1554.227,390.246c7.705,0,14.002,6.258,14.002,14.002c0,7.666-6.219,13.924-13.884,14.002
				c-0.039,0-0.078,0-0.117,0c-7.744,0-14.002-6.297-14.002-14.002C1540.225,396.504,1546.484,390.246,1554.227,390.246z"/>
		</g>
	</g>
	<g>
		<g>
			<path style="fill:#333333;" d="M1069.638,394.309c-48.137,0-87.16,39.023-87.16,87.16l0,0c0,48.138,39.023,87.16,87.16,87.16
				c48.137,0,87.16-39.022,87.16-87.16l0,0C1156.798,433.332,1117.775,394.309,1069.638,394.309z"/>
			<path style="fill:#FFFFFF;" d="M1111.732,519.689h-84.188c2.29-21.213,20.309-37.785,42.125-37.785
				C1091.483,481.904,1109.502,498.476,1111.732,519.689z"/>
			<path style="fill:#FFFFFF;" d="M1069.638,431.248c12.403,0,22.539,10.073,22.539,22.539c0,12.34-10.011,22.413-22.35,22.538
				c-0.063,0-0.126,0-0.189,0c-12.466,0-22.539-10.136-22.539-22.538C1047.099,441.322,1057.172,431.248,1069.638,431.248z"/>
		</g>
	</g>
	<g>
		<g>
			<path style="fill:#333333;" d="M845.643,1217.893c-29.904,0-54.146,24.242-54.146,54.146l0,0
				c0,29.904,24.242,54.146,54.146,54.146c29.904,0,54.146-24.242,54.146-54.146l0,0
				C899.789,1242.135,875.547,1217.893,845.643,1217.893z"/>
			<path style="fill:#FFFFFF;" d="M871.793,1295.782h-52.3c1.422-13.178,12.616-23.473,26.168-23.473
				C859.214,1272.309,870.408,1282.604,871.793,1295.782z"/>
			<path style="fill:#FFFFFF;" d="M845.643,1240.84c7.705,0,14.002,6.258,14.002,14.002c0,7.666-6.219,13.924-13.884,14.002
				c-0.039,0-0.078,0-0.117,0c-7.744,0-14.002-6.297-14.002-14.002C831.641,1247.098,837.899,1240.84,845.643,1240.84z"/>
		</g>
	</g>
	<g>
		<g>
			<path style="fill:#333333;" d="M1117.95,1372.024c-21.592,0-39.097,17.504-39.097,39.096l0,0
				c0,21.592,17.505,39.097,39.097,39.097c21.593,0,39.097-17.504,39.097-39.097l0,0
				C1157.047,1389.528,1139.543,1372.024,1117.95,1372.024z"/>
			<path style="fill:#FFFFFF;" d="M1136.832,1428.264h-37.764c1.028-9.515,9.11-16.949,18.896-16.949
				C1127.749,1411.315,1135.832,1418.749,1136.832,1428.264z"/>
			<path style="fill:#FFFFFF;" d="M1117.95,1388.593c5.564,0,10.11,4.519,10.11,10.11c0,5.535-4.49,10.054-10.025,10.11
				c-0.028,0-0.057,0-0.085,0c-5.591,0-10.11-4.546-10.11-10.11C1107.84,1393.112,1112.359,1388.593,1117.95,1388.593z"/>
		</g>
	</g>
	<g>
		<g>
			<path style="fill:#333333;" d="M811.971,600.078c-29.904,0-54.146,24.241-54.146,54.145l0,0
				c0,29.904,24.242,54.146,54.146,54.146c29.904,0,54.145-24.242,54.145-54.146l0,0
				C866.116,624.319,841.875,600.078,811.971,600.078z"/>
			<path style="fill:#FFFFFF;" d="M838.12,677.967h-52.299c1.422-13.178,12.616-23.473,26.169-23.473
				C825.542,654.493,836.735,664.789,838.12,677.967z"/>
			<path style="fill:#FFFFFF;" d="M811.971,623.025c7.705,0,14.002,6.257,14.002,14.002c0,7.665-6.218,13.923-13.884,14.002
				c-0.04,0-0.078,0-0.117,0c-7.744,0-14.002-6.297-14.002-14.002C797.969,629.283,804.227,623.025,811.971,623.025z"/>
		</g>
	</g>
	<g>
		<g>
			<path style="fill:#333333;" d="M725.612,402.14c-44.917,0-81.33,36.413-81.33,81.33v0.001c0,44.917,36.413,81.33,81.33,81.33
				c44.917,0,81.33-36.413,81.33-81.33v-0.001C806.942,438.553,770.53,402.14,725.612,402.14z"/>
			<path style="fill:#FFFFFF;" d="M764.891,519.133h-78.558c2.137-19.794,18.951-35.257,39.307-35.257
				C745.996,483.876,762.81,499.34,764.891,519.133z"/>
			<path style="fill:#FFFFFF;" d="M725.612,436.608c11.573,0,21.031,9.4,21.031,21.032c0,11.514-9.341,20.913-20.855,21.031
				c-0.059,0-0.118,0-0.176,0c-11.632,0-21.031-9.458-21.031-21.031C704.581,446.008,713.98,436.608,725.612,436.608z"/>
		</g>
	</g>
	<g>
		<g>
			<path style="fill:#333333;" d="M1784.097,684.731c-48.132,0-87.15,39.018-87.15,87.15l0,0c0,48.132,39.019,87.15,87.15,87.15
				c48.132,0,87.15-39.019,87.15-87.15l0,0C1871.247,723.75,1832.229,684.731,1784.097,684.731z"/>
			<path style="fill:#FFFFFF;" d="M1826.186,810.097h-84.179c2.289-21.21,20.307-37.781,42.119-37.781
				C1805.94,772.317,1823.957,788.887,1826.186,810.097z"/>
			<path style="fill:#FFFFFF;" d="M1784.097,721.667c12.401,0,22.536,10.072,22.536,22.536c0,12.338-10.009,22.41-22.347,22.536
				c-0.063,0-0.126,0-0.188,0c-12.465,0-22.536-10.135-22.536-22.536C1761.561,731.739,1771.632,721.667,1784.097,721.667z"/>
		</g>
	</g>
	<g>
		<g>
			<path style="fill:#333333;" d="M993.509,1481.872c-40.972,0-74.186,33.214-74.186,74.186l0,0
				c0,40.973,33.214,74.187,74.186,74.187c40.973,0,74.186-33.214,74.186-74.187l0,0
				C1067.695,1515.086,1034.481,1481.872,993.509,1481.872z"/>
			<path style="fill:#FFFFFF;" d="M1029.337,1588.589H957.68c1.949-18.055,17.286-32.161,35.854-32.161
				C1012.103,1556.428,1027.439,1570.534,1029.337,1588.589z"/>
			<path style="fill:#FFFFFF;" d="M993.509,1513.313c10.557,0,19.185,8.574,19.185,19.184c0,10.503-8.52,19.077-19.024,19.184
				c-0.053,0-0.107,0-0.161,0c-10.61,0-19.184-8.628-19.184-19.184C974.325,1521.886,982.898,1513.313,993.509,1513.313z"/>
		</g>
	</g>
	<g>
		<g>
			<path style="fill:#333333;" d="M1340.969,1179.848c-19.113,0-34.607,15.494-34.607,34.607l0,0
				c0,19.113,15.495,34.606,34.607,34.606s34.606-15.494,34.606-34.606l0,0C1375.576,1195.342,1360.082,1179.848,1340.969,1179.848z
				"/>
			<path style="fill:#FFFFFF;" d="M1357.682,1229.629h-33.427c0.909-8.423,8.063-15.002,16.725-15.002
				C1349.642,1214.627,1356.797,1221.206,1357.682,1229.629z"/>
			<path style="fill:#FFFFFF;" d="M1340.969,1194.514c4.924,0,8.949,4,8.949,8.949c0,4.9-3.975,8.899-8.874,8.949
				c-0.024,0-0.049,0-0.074,0c-4.95,0-8.949-4.025-8.949-8.949C1332.02,1198.514,1336.02,1194.514,1340.969,1194.514z"/>
		</g>
	</g>
	<g>
		<g>
			<path style="fill:#333333;" d="M1177.994,780.91c-89.467,0-161.995,72.528-161.995,161.995l0,0
				c0,89.467,72.528,161.995,161.995,161.995c89.467,0,161.995-72.527,161.995-161.995l0,0
				C1339.989,853.438,1267.461,780.91,1177.994,780.91z"/>
			<path style="fill:#FFFFFF;" d="M1256.23,1013.94h-156.472c4.257-39.426,37.746-70.227,78.292-70.227
				C1218.596,943.713,1252.085,974.514,1256.23,1013.94z"/>
			<path style="fill:#FFFFFF;" d="M1177.994,849.565c23.052,0,41.89,18.722,41.89,41.89c0,22.934-18.605,41.656-41.539,41.89
				c-0.117,0-0.234,0-0.351,0c-23.168,0-41.89-18.839-41.89-41.89C1136.104,868.287,1154.826,849.565,1177.994,849.565z"/>
		</g>
	</g>
</g>
</svg>
